<?xml version="1.0" encoding="utf-8"?>
<!-- Generator: Adobe Illustrator 24.0.1, SVG Export Plug-In . SVG Version: 6.00 Build 0)  -->
<svg version="1.1" xmlns="http://www.w3.org/2000/svg" xmlns:xlink="http://www.w3.org/1999/xlink" x="0px" y="0px"
	 viewBox="0 0 233 100" style="enable-background:new 0 0 233 100;" xml:space="preserve">
<style type="text/css">
	.st0{fill:#FFFFFF;}
	.st1{fill:#FFCA19;}
	.st2{opacity:0.32;fill:#16588D;fill-opacity:0.52;}
	.st3{fill:#F3F3F3;}
	.st4{fill:none;stroke:#D1D3D4;stroke-miterlimit:10;stroke-dasharray:4;}
	.st5{clip-path:url(#SVGID_2_);}
	.st6{fill:#212D5F;}
	.st7{fill:none;stroke:#FFFFFF;stroke-width:4.9576;stroke-linejoin:round;stroke-miterlimit:10;}
	.st8{fill:none;stroke:#FFFFFF;stroke-width:3;stroke-linecap:round;stroke-linejoin:round;stroke-miterlimit:10;}
	.st9{clip-path:url(#SVGID_4_);}
	.st10{clip-path:url(#SVGID_6_);}
	.st11{fill:none;stroke:#FFFFFF;stroke-width:4;stroke-linejoin:round;stroke-miterlimit:10;}
	.st12{clip-path:url(#SVGID_8_);}
	.st13{clip-path:url(#SVGID_10_);}
	.st14{clip-path:url(#SVGID_12_);}
	.st15{fill-rule:evenodd;clip-rule:evenodd;fill:#212D5F;}
	.st16{fill-rule:evenodd;clip-rule:evenodd;fill:#FFCA19;}
	.st17{fill-rule:evenodd;clip-rule:evenodd;fill:none;}
	.st18{fill:none;}
	.st19{fill:#222D60;}
	.st20{fill-rule:evenodd;clip-rule:evenodd;fill:#222E60;}
	.st21{fill-rule:evenodd;clip-rule:evenodd;fill:#FFFFFF;}
	.st22{fill-rule:evenodd;clip-rule:evenodd;fill:url(#SVGID_13_);}
	.st23{fill-rule:evenodd;clip-rule:evenodd;fill:#33449A;}
	.st24{fill-rule:evenodd;clip-rule:evenodd;fill:#FBC21D;}
	.st25{fill-rule:evenodd;clip-rule:evenodd;fill:#334397;}
	.st26{fill-rule:evenodd;clip-rule:evenodd;fill:#F7C12A;}
	.st27{fill-rule:evenodd;clip-rule:evenodd;fill:#263F8F;}
	.st28{fill-rule:evenodd;clip-rule:evenodd;fill:#F3C033;}
	.st29{fill-rule:evenodd;clip-rule:evenodd;fill:#F2BF37;}
	.st30{fill-rule:evenodd;clip-rule:evenodd;fill:#EEBF42;}
	.st31{fill-rule:evenodd;clip-rule:evenodd;fill:#DBBD76;}
	.st32{fill-rule:evenodd;clip-rule:evenodd;fill:#D6AE5D;}
	.st33{fill-rule:evenodd;clip-rule:evenodd;fill:#37397F;}
	.st34{fill-rule:evenodd;clip-rule:evenodd;fill:#F9F8F4;}
	.st35{fill-rule:evenodd;clip-rule:evenodd;fill:#FEC91E;}
	.st36{fill:#BE1E2D;}
	.st37{fill:url(#XMLID_124_);}
	.st38{fill:url(#XMLID_125_);}
	.st39{fill:url(#XMLID_126_);}
	.st40{fill:url(#XMLID_127_);}
	.st41{fill:url(#XMLID_128_);}
	.st42{fill:url(#XMLID_129_);}
	.st43{fill:url(#XMLID_130_);}
	.st44{fill:url(#XMLID_131_);}
	.st45{fill:url(#XMLID_132_);}
	.st46{fill:url(#XMLID_133_);}
	.st47{fill:url(#XMLID_134_);}
	.st48{fill:url(#XMLID_135_);}
	.st49{fill:url(#XMLID_136_);}
	.st50{fill:url(#XMLID_137_);}
	.st51{fill:url(#XMLID_138_);}
	.st52{fill:url(#XMLID_139_);}
	.st53{fill:url(#XMLID_140_);}
	.st54{fill:url(#XMLID_141_);}
	.st55{fill:url(#XMLID_142_);}
	.st56{fill:url(#XMLID_143_);}
	.st57{fill:url(#XMLID_144_);}
	.st58{fill:url(#XMLID_145_);}
	.st59{fill:url(#XMLID_146_);}
	.st60{fill:url(#XMLID_147_);}
	.st61{fill:url(#XMLID_148_);}
	.st62{fill:url(#XMLID_149_);}
	.st63{clip-path:url(#SVGID_15_);}
	.st64{fill-rule:evenodd;clip-rule:evenodd;fill:#0C1331;}
	.st65{fill-rule:evenodd;clip-rule:evenodd;fill:#E7AE83;}
	.st66{fill-rule:evenodd;clip-rule:evenodd;fill:#D8776E;}
	.st67{fill-rule:evenodd;clip-rule:evenodd;fill:#F2D3C8;}
	.st68{fill-rule:evenodd;clip-rule:evenodd;fill:#283A86;}
	.st69{fill-rule:evenodd;clip-rule:evenodd;fill:#232558;}
	.st70{fill-rule:evenodd;clip-rule:evenodd;fill:#395DA2;}
	.st71{fill:#0C1331;}
	.st72{fill:#E7AE83;}
	.st73{clip-path:url(#SVGID_15_);fill:#D8776E;}
	.st74{fill:url(#XMLID_150_);}
	.st75{fill:url(#XMLID_151_);}
	.st76{fill:url(#XMLID_152_);}
	.st77{fill:url(#XMLID_153_);}
	.st78{fill:url(#XMLID_154_);}
	.st79{fill:url(#XMLID_155_);}
	.st80{fill:url(#XMLID_156_);}
	.st81{fill:url(#XMLID_157_);}
	.st82{fill:url(#XMLID_158_);}
	.st83{fill:url(#XMLID_159_);}
	.st84{fill:url(#XMLID_160_);}
	.st85{fill:url(#XMLID_161_);}
	.st86{fill:url(#XMLID_162_);}
	.st87{fill:url(#XMLID_163_);}
	.st88{fill:url(#XMLID_164_);}
	.st89{fill:url(#XMLID_165_);}
	.st90{fill:url(#XMLID_166_);}
	.st91{fill:url(#XMLID_167_);}
	.st92{fill:url(#XMLID_168_);}
	.st93{fill:url(#XMLID_169_);}
	.st94{fill:url(#XMLID_170_);}
	.st95{fill:url(#XMLID_171_);}
	.st96{fill:url(#XMLID_172_);}
	.st97{fill:url(#XMLID_173_);}
	.st98{fill:url(#XMLID_174_);}
	.st99{fill:url(#XMLID_175_);}
	.st100{clip-path:url(#SVGID_17_);}
	.st101{clip-path:url(#SVGID_17_);fill:#D8776E;}
</style>
<g id="Layer_2">
</g>
<g id="Layer_1">
	<path id="XMLID_40_" class="st2" d="M89.96,8.57c0.2-0.35,0.06-0.8-0.3-0.98c-0.32-0.16-0.72-0.05-0.92,0.25
		c-0.15,0.23-0.15,0.5-0.03,0.72c0.05,0.09,0.04,0.2-0.01,0.28L88.27,9.6c-0.08,0.14-0.25,0.19-0.4,0.13
		c-0.41-0.19-0.82-0.32-1.25-0.42c-0.04-0.01-0.07-0.05-0.06-0.09l0-0.02c0-0.03,0.02-0.05,0.05-0.06c0.16-0.08,0.28-0.24,0.3-0.44
		c0.02-0.24-0.15-0.47-0.38-0.53c-0.3-0.08-0.6,0.12-0.65,0.42c-0.03,0.17,0.04,0.34,0.15,0.46c0.02,0.02,0.03,0.05,0.03,0.07
		l0,0.02c-0.01,0.04-0.05,0.07-0.09,0.07c-0.62-0.07-1.24-0.04-1.84,0.07c-0.18,0.03-0.35-0.07-0.4-0.25l-0.19-0.67
		c-0.05-0.16-0.02-0.34,0.08-0.48c0.02-0.03,0.04-0.07,0.06-0.1c0.08-0.17,0.09-0.37,0.01-0.56c-0.12-0.31-0.46-0.5-0.79-0.44
		c-0.25,0.05-0.43,0.21-0.52,0.42c-0.07,0.15-0.08,0.32-0.04,0.49c0.06,0.22,0.22,0.38,0.41,0.46c0.14,0.06,0.25,0.18,0.29,0.32
		l0.2,0.71c0.05,0.17-0.04,0.34-0.2,0.41c-0.42,0.16-0.83,0.37-1.21,0.62l-0.04-0.05c0.07-0.18,0.04-0.38-0.1-0.54
		c-0.16-0.17-0.41-0.22-0.62-0.11c-0.11,0.06-0.19,0.14-0.24,0.25c-0.08,0.17-0.07,0.37,0.05,0.53c0.12,0.16,0.32,0.24,0.51,0.21
		l0.02,0.03c-0.49,0.39-0.93,0.86-1.3,1.4c-0.1,0.14-0.29,0.19-0.44,0.1l-0.72-0.4c-0.1-0.05-0.16-0.15-0.17-0.26
		c-0.02-0.23-0.15-0.44-0.36-0.56c-0.28-0.16-0.62-0.1-0.84,0.11c-0.07,0.07-0.13,0.16-0.18,0.26c-0.12,0.3-0.02,0.65,0.24,0.83
		c0.23,0.17,0.51,0.18,0.74,0.06c0.1-0.05,0.22-0.05,0.31,0.01l0.72,0.4c0.15,0.08,0.21,0.27,0.14,0.43
		c-0.19,0.43-0.32,0.86-0.41,1.31l-0.03,0c-0.02,0-0.04-0.02-0.05-0.04c-0.08-0.16-0.24-0.27-0.44-0.28
		c-0.24-0.01-0.46,0.15-0.52,0.38c-0.08,0.3,0.12,0.61,0.42,0.65c0.2,0.03,0.39-0.06,0.5-0.21l0.04,0.01
		c-0.08,0.69-0.04,1.37,0.11,2.04c0.02,0.09-0.04,0.19-0.13,0.21l-1.03,0.29c-0.06,0.02-0.13,0-0.17-0.04
		c-0.19-0.19-0.47-0.26-0.74-0.17c-0.34,0.12-0.54,0.49-0.45,0.84c0.1,0.4,0.5,0.63,0.89,0.52c0.26-0.07,0.44-0.28,0.5-0.52
		c0.01-0.06,0.06-0.11,0.13-0.13l1.03-0.29c0.09-0.03,0.19,0.02,0.22,0.11c0.17,0.46,0.39,0.9,0.66,1.31
		c0.01,0.02,0.01,0.04-0.01,0.05l-0.03,0.02c-0.01,0.01-0.02,0.01-0.03,0c-0.17-0.06-0.38-0.03-0.53,0.11
		c-0.17,0.16-0.21,0.43-0.1,0.63c0.16,0.28,0.51,0.35,0.76,0.17c0.16-0.12,0.24-0.32,0.21-0.51l0.05-0.03
		c0.42,0.53,0.94,1,1.54,1.38c0.07,0.04,0.09,0.13,0.05,0.19l-0.55,0.99c-0.03,0.05-0.08,0.07-0.13,0.07c-0.25,0-0.5,0.13-0.63,0.37
		c-0.18,0.32-0.06,0.76,0.25,0.95c0.35,0.22,0.8,0.09,1-0.26c0.13-0.24,0.11-0.52-0.02-0.73c-0.03-0.05-0.03-0.1-0.01-0.15
		c0.11-0.21,0.42-0.75,0.55-0.99c0.04-0.07,0.12-0.09,0.19-0.06c0.45,0.21,0.92,0.37,1.39,0.46c0.03,0.01,0.06,0.04,0.05,0.07l0,0
		c0,0.02-0.02,0.04-0.04,0.05c-0.16,0.08-0.27,0.25-0.28,0.45c-0.01,0.23,0.15,0.45,0.38,0.51c0.3,0.08,0.61-0.11,0.65-0.42
		c0.03-0.19-0.04-0.37-0.18-0.48c-0.02-0.02-0.03-0.04-0.02-0.06l0-0.03c0.65,0.07,1.31,0.04,1.94-0.08
		c0.13-0.03,0.26,0.05,0.3,0.18l0.26,0.93c0.02,0.09,0,0.18-0.06,0.25c-0.17,0.19-0.23,0.46-0.14,0.71
		c0.12,0.34,0.49,0.54,0.84,0.45c0.4-0.1,0.63-0.5,0.52-0.89c-0.07-0.24-0.26-0.42-0.48-0.49c-0.09-0.03-0.16-0.09-0.18-0.18
		l-0.26-0.93c-0.04-0.13,0.03-0.26,0.16-0.31c0.43-0.16,0.83-0.36,1.22-0.61c0.03-0.02,0.07-0.01,0.09,0.02l0.04,0.06
		c0.01,0.02,0.02,0.04,0.01,0.06c-0.06,0.17-0.04,0.37,0.1,0.53c0.16,0.18,0.43,0.23,0.64,0.11c0.27-0.16,0.35-0.51,0.17-0.76
		c-0.11-0.15-0.27-0.22-0.44-0.21c-0.02,0-0.05-0.01-0.06-0.03l-0.04-0.06c-0.02-0.03-0.02-0.07,0.01-0.09
		c0.51-0.41,0.96-0.9,1.33-1.48c0.04-0.06,0.12-0.08,0.19-0.05l1,0.56c0.05,0.03,0.07,0.08,0.07,0.13c0,0.25,0.13,0.5,0.37,0.64
		c0.32,0.18,0.76,0.06,0.95-0.25c0.22-0.35,0.09-0.8-0.26-1c-0.24-0.13-0.52-0.11-0.73,0.02c-0.04,0.03-0.1,0.03-0.15,0.01l-1-0.56
		c-0.07-0.04-0.09-0.12-0.06-0.19c0.22-0.45,0.38-0.92,0.48-1.39c0.01-0.03,0.04-0.05,0.07-0.05l0.08,0.01
		c0.02,0,0.04,0.02,0.04,0.03c0.08,0.17,0.24,0.29,0.44,0.31c0.24,0.02,0.47-0.15,0.53-0.38c0.08-0.3-0.12-0.6-0.42-0.65
		c-0.18-0.03-0.35,0.04-0.47,0.16c-0.01,0.01-0.03,0.02-0.05,0.02l-0.08-0.01c-0.03,0-0.05-0.03-0.05-0.06
		c0.07-0.65,0.04-1.3-0.08-1.93c-0.02-0.12,0.05-0.24,0.16-0.27l0.95-0.27c0.08-0.02,0.16,0,0.22,0.05
		c0.19,0.17,0.46,0.24,0.72,0.15c0.34-0.12,0.54-0.49,0.45-0.84c-0.1-0.4-0.5-0.63-0.89-0.52c-0.25,0.07-0.43,0.26-0.49,0.5
		c-0.02,0.08-0.08,0.14-0.16,0.16l-0.95,0.27c-0.12,0.03-0.24-0.03-0.28-0.14c-0.16-0.43-0.36-0.85-0.61-1.24
		c-0.02-0.03-0.01-0.08,0.02-0.1l0.03-0.02c0.02-0.01,0.05-0.02,0.07-0.01c0.17,0.06,0.37,0.04,0.52-0.1
		c0.18-0.16,0.23-0.43,0.11-0.64c-0.16-0.27-0.51-0.35-0.76-0.17c-0.15,0.11-0.22,0.27-0.21,0.44c0,0.03-0.01,0.05-0.03,0.06
		l-0.03,0.02c-0.03,0.02-0.08,0.02-0.1-0.01c-0.38-0.48-0.84-0.9-1.36-1.26c-0.13-0.09-0.17-0.26-0.1-0.4l0.43-0.77
		c0.05-0.09,0.14-0.15,0.24-0.15C89.61,8.91,89.83,8.78,89.96,8.57z"/>
	<path class="st0" d="M216.71,84.55H45.86c-4.49,0-8.13-3.64-8.13-8.13V26.27c0-4.49,3.64-8.13,8.13-8.13h170.85
		c4.49,0,8.13,3.64,8.13,8.13v50.14C224.84,80.9,221.2,84.55,216.71,84.55z"/>
	<g>
		<g>
			<path class="st6" d="M83.15,37.44v0.62c0,0.67-0.03,1.25-0.08,1.75s-0.17,0.99-0.35,1.47c-0.18,0.48-0.46,0.91-0.83,1.27
				c-0.78,0.78-1.84,1.16-3.2,1.16h-4.35V31.34h4.35c1.36,0,2.43,0.39,3.2,1.16c0.37,0.37,0.64,0.78,0.83,1.24
				c0.18,0.46,0.3,0.93,0.35,1.4c0.05,0.48,0.08,1.03,0.08,1.67V37.44z M81.28,37.45c0-0.71-0.01-1.26-0.03-1.65
				c-0.02-0.39-0.08-0.75-0.18-1.09c-0.1-0.34-0.25-0.62-0.45-0.84c-0.51-0.56-1.21-0.84-2.11-0.84h-2.28v9h2.28
				c0.9,0,1.6-0.28,2.11-0.83c0.29-0.32,0.48-0.76,0.55-1.31C81.24,39.33,81.28,38.52,81.28,37.45z"/>
			<path class="st6" d="M91.67,39.8c0,0.84-0.18,1.56-0.55,2.16s-0.86,1.06-1.49,1.38c-0.63,0.32-1.32,0.48-2.08,0.48
				c-0.41,0-0.79-0.04-1.15-0.12c-0.36-0.08-0.69-0.21-0.98-0.39s-0.59-0.41-0.87-0.69l1.25-1.23c0.27,0.25,0.52,0.44,0.76,0.56
				c0.24,0.12,0.57,0.18,0.99,0.18c0.46,0,0.87-0.09,1.2-0.28c0.34-0.19,0.59-0.47,0.77-0.84c0.18-0.37,0.27-0.82,0.27-1.34v-8.32
				h1.88V39.8z"/>
			<path class="st6" d="M103.38,35.09c0,0.72-0.16,1.36-0.48,1.93c-0.32,0.57-0.79,1.02-1.39,1.34c-0.61,0.33-1.3,0.49-2.09,0.49
				h-2.81v4.86h-1.89V31.34h4.7c0.58,0,1.13,0.09,1.63,0.28s0.93,0.45,1.27,0.79c0.35,0.34,0.61,0.73,0.79,1.18
				C103.29,34.04,103.38,34.54,103.38,35.09z M101.51,35.1c0-0.64-0.2-1.15-0.6-1.52s-0.93-0.55-1.59-0.55h-2.71v4.12h2.71
				c0.67,0,1.2-0.18,1.6-0.55C101.31,36.24,101.51,35.73,101.51,35.1z"/>
			<path class="st6" d="M117.43,33.03h-3.41v10.69h-1.88V33.03h-3.41v-1.69h8.69V33.03z"/>
			<path class="st6" d="M128.69,43.72h-2l-0.85-2.49h-4.89l-0.85,2.49h-2l4.54-12.38h1.51L128.69,43.72z M125.31,39.63l-1.87-5.49
				l-1.93,5.49H125.31z"/>
			<path class="st6" d="M139.76,43.72h-1.72l-5.71-8.71v8.71h-1.89V31.34h1.73l5.72,8.69v-8.69h1.88V43.72z"/>
			<path class="st6" d="M151.52,38.92c0,0.8-0.08,1.48-0.25,2.03c-0.17,0.55-0.45,1.03-0.86,1.46c-0.89,0.94-2.02,1.41-3.4,1.41
				c-0.43,0-0.84-0.05-1.22-0.15c-0.38-0.1-0.75-0.25-1.1-0.45c-0.35-0.2-0.66-0.44-0.93-0.71c-0.39-0.4-0.66-0.82-0.83-1.27
				c-0.17-0.45-0.28-0.93-0.31-1.46c-0.04-0.52-0.06-1.28-0.06-2.25c0-0.75,0.01-1.35,0.03-1.79c0.02-0.44,0.07-0.85,0.14-1.21
				c0.07-0.37,0.19-0.71,0.35-1.03c0.16-0.32,0.39-0.63,0.69-0.94c0.88-0.88,1.96-1.32,3.25-1.32c0.84,0,1.58,0.17,2.22,0.5
				s1.14,0.79,1.52,1.38c0.38,0.58,0.63,1.24,0.76,1.96h-1.89c-0.1-0.45-0.27-0.83-0.5-1.15c-0.23-0.32-0.52-0.57-0.88-0.74
				c-0.35-0.17-0.76-0.26-1.23-0.26c-0.35,0-0.69,0.07-1.01,0.2s-0.6,0.32-0.82,0.56c-0.3,0.33-0.5,0.75-0.6,1.24
				c-0.1,0.49-0.15,1.36-0.15,2.6c0,0.66,0.01,1.17,0.03,1.55c0.02,0.38,0.06,0.72,0.11,1.02c0.06,0.31,0.13,0.55,0.22,0.72
				s0.22,0.37,0.38,0.56c0.22,0.23,0.49,0.41,0.81,0.55c0.32,0.13,0.66,0.2,1.02,0.2c0.84,0,1.51-0.29,2.01-0.87
				c0.42-0.48,0.63-1.13,0.63-1.94v-0.69H147v-1.6h4.52V38.92z"/>
			<path class="st6" d="M162.8,38.92c0,0.8-0.08,1.48-0.25,2.03c-0.17,0.55-0.45,1.03-0.86,1.46c-0.89,0.94-2.02,1.41-3.4,1.41
				c-0.43,0-0.84-0.05-1.22-0.15c-0.38-0.1-0.75-0.25-1.1-0.45c-0.35-0.2-0.66-0.44-0.93-0.71c-0.39-0.4-0.66-0.82-0.83-1.27
				c-0.17-0.45-0.28-0.93-0.31-1.46c-0.04-0.52-0.06-1.28-0.06-2.25c0-0.75,0.01-1.35,0.03-1.79c0.02-0.44,0.07-0.85,0.14-1.21
				c0.07-0.37,0.19-0.71,0.35-1.03c0.16-0.32,0.39-0.63,0.69-0.94c0.88-0.88,1.96-1.32,3.25-1.32c0.84,0,1.58,0.17,2.22,0.5
				s1.14,0.79,1.52,1.38c0.38,0.58,0.63,1.24,0.76,1.96h-1.89c-0.1-0.45-0.27-0.83-0.5-1.15c-0.23-0.32-0.52-0.57-0.88-0.74
				c-0.35-0.17-0.76-0.26-1.23-0.26c-0.35,0-0.69,0.07-1.01,0.2s-0.6,0.32-0.82,0.56c-0.3,0.33-0.5,0.75-0.6,1.24
				c-0.1,0.49-0.15,1.36-0.15,2.6c0,0.66,0.01,1.17,0.03,1.55c0.02,0.38,0.06,0.72,0.11,1.02c0.06,0.31,0.13,0.55,0.22,0.72
				s0.22,0.37,0.38,0.56c0.22,0.23,0.49,0.41,0.81,0.55c0.32,0.13,0.66,0.2,1.02,0.2c0.84,0,1.51-0.29,2.01-0.87
				c0.42-0.48,0.63-1.13,0.63-1.94v-0.69h-2.64v-1.6h4.52V38.92z"/>
			<path class="st6" d="M174.68,43.72h-2l-0.85-2.49h-4.89l-0.85,2.49h-2l4.54-12.38h1.51L174.68,43.72z M171.3,39.63l-1.87-5.49
				l-1.93,5.49H171.3z"/>
			<path class="st6" d="M185.09,35.09c0,0.72-0.16,1.36-0.48,1.93c-0.32,0.57-0.79,1.02-1.39,1.34c-0.61,0.33-1.3,0.49-2.09,0.49
				h-2.81v4.86h-1.89V31.34h4.7c0.58,0,1.13,0.09,1.63,0.28s0.93,0.45,1.27,0.79c0.35,0.34,0.61,0.73,0.79,1.18
				C185,34.04,185.09,34.54,185.09,35.09z M183.21,35.1c0-0.64-0.2-1.15-0.6-1.52s-0.93-0.55-1.59-0.55h-2.71v4.12h2.71
				c0.67,0,1.2-0.18,1.6-0.55C183.02,36.24,183.21,35.73,183.21,35.1z"/>
		</g>
		<g>
			<path class="st36" d="M92.61,65.59c-0.22,1.35-0.62,2.55-1.19,3.62c-0.58,1.06-1.29,1.94-2.14,2.62s-1.81,1.2-2.88,1.53
				c-1.07,0.34-2.21,0.5-3.41,0.5c-2.82,0-5.17-0.95-7.05-2.86c-1.11-1.12-1.82-2.38-2.13-3.8s-0.45-3.22-0.45-5.4v-0.85V60.1
				c0-2.18,0.15-3.99,0.45-5.41c0.3-1.42,1.01-2.69,2.13-3.81c0.95-0.95,2-1.66,3.13-2.13s2.44-0.71,3.92-0.71
				c1.27,0,2.43,0.17,3.48,0.51s2,0.85,2.84,1.53s1.54,1.55,2.12,2.6c0.57,1.05,0.97,2.26,1.19,3.63h-6.34
				c-0.22-0.83-0.58-1.48-1.07-1.98c-0.49-0.49-1.22-0.74-2.19-0.74c-0.53,0-1.01,0.1-1.44,0.3c-0.42,0.2-0.76,0.45-1.02,0.77
				c-0.22,0.28-0.4,0.61-0.53,1s-0.24,0.98-0.31,1.78c-0.08,0.8-0.11,1.97-0.11,3.51c0,2.06,0.08,3.5,0.23,4.33
				c0.15,0.83,0.39,1.48,0.73,1.94c0.56,0.72,1.38,1.08,2.46,1.08c0.94,0,1.67-0.25,2.17-0.74c0.51-0.49,0.87-1.15,1.09-1.98H92.61z
				"/>
			<path class="st36" d="M112.63,60.96v0.85c0,1.42-0.05,2.64-0.15,3.66s-0.33,2.01-0.71,2.96c-0.37,0.95-0.94,1.81-1.71,2.58
				c-0.94,0.94-1.98,1.65-3.11,2.13c-1.13,0.48-2.46,0.72-4,0.72c-1.03,0-1.96-0.11-2.79-0.32s-1.6-0.53-2.3-0.95
				c-0.7-0.42-1.37-0.95-1.99-1.59c-1.11-1.12-1.82-2.38-2.13-3.8S93.3,64,93.3,61.81v-0.85V60.1c0-2.18,0.15-3.99,0.45-5.41
				c0.3-1.42,1.01-2.69,2.13-3.81c0.96-0.96,2.01-1.68,3.13-2.14s2.44-0.7,3.96-0.7c1.53,0,2.86,0.24,3.99,0.71
				c1.13,0.47,2.17,1.18,3.12,2.13c0.77,0.77,1.33,1.63,1.71,2.59c0.37,0.96,0.61,1.95,0.71,2.97s0.15,2.24,0.15,3.66V60.96z
				 M106.39,60.96c0-2.16-0.07-3.64-0.22-4.43c-0.15-0.79-0.38-1.39-0.71-1.81c-0.23-0.33-0.57-0.59-1.02-0.8s-0.94-0.31-1.49-0.31
				c-0.53,0-1.02,0.1-1.45,0.3c-0.43,0.2-0.78,0.47-1.05,0.81c-0.21,0.27-0.38,0.6-0.51,0.98c-0.13,0.39-0.24,0.99-0.3,1.8
				c-0.07,0.81-0.1,1.96-0.1,3.46c0,1.49,0.03,2.63,0.1,3.44c0.07,0.81,0.17,1.4,0.3,1.79c0.13,0.38,0.31,0.71,0.51,0.98
				c0.59,0.77,1.42,1.15,2.49,1.15c1.08,0,1.92-0.38,2.51-1.15c0.33-0.45,0.56-1.06,0.71-1.82
				C106.31,64.58,106.39,63.12,106.39,60.96z"/>
			<path class="st36" d="M134.06,48.25l-8.42,25.41h-4.65l-8.38-25.41h6.47l4.27,14.21l4.22-14.21H134.06z"/>
			<path class="st36" d="M141.1,73.66h-6.24V48.25h6.24V73.66z"/>
			<path class="st36" d="M163.36,60.96v2.07c0,1.23-0.06,2.28-0.17,3.15c-0.11,0.87-0.36,1.72-0.74,2.56
				c-0.38,0.84-0.96,1.65-1.74,2.43c-1.66,1.66-3.94,2.49-6.84,2.49h-9.42V48.25h9.42c2.9,0,5.18,0.83,6.84,2.49
				c0.78,0.78,1.36,1.59,1.74,2.43c0.38,0.84,0.63,1.7,0.74,2.56c0.11,0.87,0.17,1.92,0.17,3.15V60.96z M157.12,60.96
				c0-2.09-0.04-3.47-0.13-4.14c-0.09-0.67-0.27-1.19-0.53-1.58c-0.64-0.95-1.64-1.43-3.01-1.43h-2.76V68.1h2.76
				c1.36,0,2.37-0.48,3.01-1.43c0.2-0.3,0.33-0.6,0.41-0.9c0.08-0.3,0.14-0.8,0.18-1.53C157.1,63.53,157.12,62.43,157.12,60.96z"/>
			<path class="st36" d="M176.78,65.91h-11.71v-5.53h11.71V65.91z"/>
			<path class="st36" d="M191.22,73.66h-5.86V54.49l-5.42,4.72v-6.26l5.42-4.71h5.86V73.66z"/>
			<path class="st36" d="M213.3,56.22c0,1.14-0.2,2.24-0.6,3.3c-0.4,1.06-1.01,2.42-1.82,4.07l-4.9,10.08h-6.43l5.04-9.94
				c-0.34,0.12-0.81,0.17-1.43,0.17c-0.77,0-1.56-0.17-2.37-0.51c-0.81-0.34-1.55-0.83-2.21-1.49c-0.66-0.66-1.19-1.47-1.59-2.43
				c-0.4-0.96-0.6-2.04-0.6-3.25c0-1.71,0.38-3.19,1.13-4.44c0.75-1.25,1.78-2.19,3.08-2.81c1.3-0.62,2.71-0.93,4.24-0.93
				c1.53,0,2.95,0.31,4.25,0.93c1.3,0.62,2.33,1.56,3.09,2.81C212.92,53.03,213.3,54.51,213.3,56.22z M207.44,56.22
				c0-0.91-0.24-1.62-0.73-2.13c-0.49-0.51-1.12-0.77-1.88-0.77c-0.74,0-1.36,0.26-1.86,0.77c-0.49,0.51-0.74,1.22-0.74,2.13
				c0,0.89,0.24,1.6,0.73,2.11c0.49,0.51,1.11,0.77,1.87,0.77c0.76,0,1.38-0.26,1.87-0.77C207.2,57.81,207.44,57.11,207.44,56.22z"
				/>
		</g>
	</g>
	<path id="XMLID_65_" class="st2" d="M12.79,40.47c0.14-0.05,0.22-0.21,0.17-0.35c-0.05-0.13-0.19-0.2-0.32-0.17
		c-0.1,0.03-0.17,0.1-0.19,0.19c-0.01,0.04-0.04,0.07-0.07,0.08l-0.31,0.1c-0.06,0.02-0.12-0.01-0.14-0.07
		c-0.07-0.16-0.15-0.3-0.24-0.43c-0.01-0.01-0.01-0.03,0.01-0.04l0.01-0.01c0.01-0.01,0.02-0.01,0.03,0
		c0.07,0.02,0.14,0.01,0.19-0.05c0.07-0.06,0.08-0.17,0.03-0.24c-0.06-0.1-0.2-0.12-0.29-0.05c-0.05,0.04-0.08,0.1-0.07,0.17
		c0,0.01,0,0.02-0.01,0.03l-0.01,0c-0.01,0.01-0.03,0.01-0.04,0c-0.15-0.18-0.33-0.33-0.53-0.45c-0.06-0.04-0.08-0.11-0.05-0.17
		l0.12-0.23c0.03-0.06,0.08-0.1,0.14-0.11c0.01,0,0.03-0.01,0.04-0.01c0.06-0.03,0.12-0.08,0.15-0.15c0.05-0.12,0-0.26-0.11-0.32
		c-0.08-0.05-0.17-0.05-0.25-0.02c-0.06,0.02-0.11,0.07-0.14,0.13c-0.04,0.08-0.04,0.16,0,0.23c0.02,0.05,0.02,0.11,0,0.16
		l-0.13,0.25c-0.03,0.06-0.1,0.09-0.16,0.06c-0.16-0.06-0.32-0.11-0.49-0.14l0-0.03c0.06-0.03,0.11-0.1,0.11-0.18
		c0-0.09-0.06-0.17-0.14-0.19c-0.05-0.01-0.09-0.01-0.13,0.01c-0.07,0.03-0.12,0.09-0.12,0.16c-0.01,0.08,0.03,0.15,0.09,0.19
		l0,0.01c-0.24-0.02-0.48,0-0.72,0.06c-0.06,0.02-0.13-0.02-0.15-0.08l-0.1-0.29c-0.01-0.04-0.01-0.08,0.02-0.12
		c0.05-0.07,0.07-0.16,0.04-0.25c-0.04-0.11-0.15-0.19-0.26-0.18c-0.04,0-0.08,0.01-0.11,0.03c-0.11,0.05-0.17,0.17-0.15,0.29
		c0.02,0.1,0.1,0.18,0.19,0.21c0.04,0.01,0.07,0.04,0.09,0.08l0.1,0.3c0.02,0.06-0.01,0.13-0.07,0.16
		c-0.16,0.07-0.31,0.16-0.45,0.26l-0.01-0.01c-0.01-0.01-0.01-0.02,0-0.02c0.02-0.06,0-0.14-0.05-0.19
		c-0.06-0.06-0.17-0.08-0.24-0.03c-0.1,0.06-0.12,0.2-0.05,0.29c0.05,0.06,0.12,0.08,0.19,0.07l0.01,0.01
		C8,39.57,7.83,39.77,7.7,39.99c-0.02,0.03-0.06,0.04-0.09,0.03l-0.36-0.18c-0.02-0.01-0.04-0.03-0.04-0.06
		c0-0.1-0.06-0.19-0.16-0.24c-0.12-0.05-0.27,0-0.34,0.12c-0.07,0.13-0.02,0.3,0.11,0.37c0.09,0.05,0.19,0.04,0.27-0.02
		c0.02-0.01,0.05-0.01,0.07,0l0.36,0.18c0.03,0.02,0.05,0.05,0.03,0.09c-0.07,0.17-0.12,0.35-0.15,0.53c0,0.01-0.01,0.01-0.01,0.01
		l-0.01,0c0,0-0.01,0-0.01-0.01c-0.03-0.06-0.1-0.1-0.18-0.1c-0.09,0-0.17,0.06-0.19,0.15c-0.03,0.12,0.05,0.23,0.17,0.24
		c0.08,0.01,0.15-0.03,0.19-0.09l0.02,0c-0.02,0.26,0.01,0.52,0.08,0.78c0.01,0.03-0.01,0.06-0.04,0.07L7.02,42
		C7,42,6.98,42,6.96,41.98c-0.07-0.07-0.17-0.09-0.27-0.06c-0.13,0.04-0.21,0.2-0.17,0.33c0.04,0.15,0.2,0.23,0.34,0.18
		c0.1-0.03,0.16-0.12,0.18-0.21c0-0.02,0.02-0.04,0.04-0.04c0.08-0.03,0.31-0.1,0.41-0.13c0.03-0.01,0.06,0,0.07,0.03
		c0.07,0.17,0.16,0.34,0.27,0.48c0.01,0.01,0.01,0.03,0,0.03l0,0c-0.01,0-0.01,0.01-0.02,0c-0.07-0.02-0.14,0-0.19,0.05
		c-0.06,0.06-0.07,0.16-0.03,0.24c0.06,0.1,0.2,0.12,0.29,0.05c0.06-0.04,0.08-0.11,0.07-0.18c0-0.01,0-0.02,0.01-0.02l0.01-0.01
		c0.16,0.19,0.35,0.35,0.56,0.47c0.04,0.03,0.06,0.08,0.04,0.13l-0.16,0.33c-0.02,0.03-0.05,0.05-0.08,0.05
		c-0.09,0.01-0.18,0.07-0.22,0.16c-0.05,0.12,0,0.27,0.12,0.34c0.13,0.07,0.3,0.02,0.37-0.11c0.04-0.09,0.04-0.18-0.01-0.26
		c-0.02-0.03-0.02-0.07,0-0.1l0.16-0.33c0.02-0.05,0.08-0.07,0.12-0.05c0.16,0.06,0.33,0.11,0.5,0.14c0.01,0,0.02,0.01,0.02,0.03
		l0,0.03c0,0.01-0.01,0.02-0.01,0.02c-0.06,0.03-0.11,0.09-0.11,0.17c0,0.09,0.06,0.17,0.15,0.19c0.12,0.03,0.23-0.05,0.24-0.17
		c0.01-0.07-0.02-0.13-0.07-0.17c-0.01-0.01-0.01-0.01-0.01-0.02l0-0.03c0-0.01,0.01-0.02,0.03-0.02c0.25,0.02,0.5-0.01,0.75-0.07
		c0.03-0.01,0.06,0.01,0.06,0.03l0.14,0.41c0.01,0.02,0,0.04-0.01,0.05c-0.07,0.07-0.09,0.17-0.06,0.27
		c0.04,0.13,0.2,0.21,0.33,0.17c0.15-0.04,0.23-0.2,0.18-0.34c-0.03-0.1-0.12-0.16-0.21-0.18c-0.02,0-0.04-0.02-0.04-0.04
		l-0.14-0.41c-0.01-0.03,0.01-0.06,0.03-0.07c0.18-0.07,0.34-0.16,0.49-0.26c0.01-0.01,0.02,0,0.03,0l0.02,0.03
		c0,0.01,0.01,0.01,0,0.02c-0.02,0.07-0.01,0.14,0.04,0.2c0.06,0.07,0.17,0.08,0.24,0.03c0.1-0.06,0.12-0.2,0.05-0.29
		c-0.04-0.05-0.11-0.08-0.17-0.07c-0.01,0-0.01,0-0.02-0.01L11.29,43c-0.01-0.01-0.01-0.02,0-0.03c0.19-0.16,0.34-0.35,0.47-0.56
		c0.02-0.04,0.07-0.05,0.11-0.03l0.33,0.17c0.03,0.01,0.05,0.04,0.05,0.07c0.01,0.1,0.07,0.18,0.16,0.23c0.12,0.05,0.27,0,0.34-0.12
		c0.07-0.13,0.02-0.3-0.11-0.37c-0.09-0.04-0.19-0.04-0.26,0.01c-0.03,0.02-0.06,0.02-0.09,0l-0.33-0.17
		c-0.04-0.02-0.06-0.07-0.04-0.11c0.07-0.16,0.12-0.33,0.15-0.5c0-0.01,0.02-0.03,0.03-0.02l0.02,0c0.01,0,0.02,0.01,0.02,0.01
		c0.03,0.06,0.09,0.11,0.17,0.11c0.09,0,0.17-0.06,0.19-0.15c0.03-0.12-0.05-0.23-0.17-0.24c-0.07-0.01-0.13,0.02-0.17,0.07
		c-0.01,0.01-0.02,0.01-0.03,0.01l-0.01,0c-0.02,0-0.03-0.02-0.03-0.03c0.02-0.23,0-0.46-0.06-0.7c-0.01-0.06,0.02-0.12,0.08-0.14
		l0.31-0.1c0.04-0.01,0.08-0.01,0.11,0.02C12.61,40.48,12.7,40.5,12.79,40.47z"/>
	<path id="XMLID_67_" class="st2" d="M10.09,59.11c0.04-0.01,0.06-0.06,0.05-0.1c-0.01-0.04-0.06-0.06-0.09-0.05
		c-0.03,0.01-0.05,0.03-0.06,0.06c0,0.01-0.01,0.02-0.02,0.02l-0.09,0.03c-0.02,0.01-0.03,0-0.04-0.02
		c-0.02-0.05-0.04-0.09-0.07-0.13c0,0,0-0.01,0-0.01l0,0c0,0,0.01,0,0.01,0c0.02,0.01,0.04,0,0.06-0.01
		c0.02-0.02,0.02-0.05,0.01-0.07c-0.02-0.03-0.06-0.04-0.08-0.01c-0.02,0.01-0.02,0.03-0.02,0.05c0,0,0,0.01,0,0.01l0,0
		c0,0-0.01,0-0.01,0c-0.05-0.05-0.1-0.1-0.16-0.13c-0.02-0.01-0.02-0.03-0.01-0.05l0.03-0.07c0.01-0.02,0.02-0.03,0.04-0.03
		c0,0,0.01,0,0.01,0c0.02-0.01,0.03-0.02,0.04-0.04c0.01-0.03,0-0.08-0.03-0.1c-0.02-0.01-0.05-0.02-0.07-0.01
		c-0.02,0.01-0.03,0.02-0.04,0.04c-0.01,0.02-0.01,0.05,0,0.07c0.01,0.02,0.01,0.03,0,0.05L9.5,58.66
		c-0.01,0.02-0.03,0.03-0.05,0.02c-0.05-0.02-0.1-0.03-0.14-0.04l0-0.01c0.02-0.01,0.03-0.03,0.03-0.05c0-0.03-0.02-0.05-0.04-0.06
		c-0.01,0-0.03,0-0.04,0c-0.02,0.01-0.03,0.03-0.04,0.05c0,0.02,0.01,0.04,0.03,0.05l0,0c-0.07-0.01-0.14,0-0.21,0.02
		c-0.02,0-0.04-0.01-0.04-0.02l-0.03-0.09c0-0.01,0-0.02,0.01-0.03c0.02-0.02,0.02-0.05,0.01-0.07c-0.01-0.03-0.04-0.05-0.08-0.05
		c-0.01,0-0.02,0-0.03,0.01c-0.03,0.02-0.05,0.05-0.04,0.09c0.01,0.03,0.03,0.05,0.06,0.06c0.01,0,0.02,0.01,0.02,0.02l0.03,0.09
		c0.01,0.02,0,0.04-0.02,0.05c-0.05,0.02-0.09,0.05-0.13,0.08l0,0c0,0,0,0,0-0.01c0-0.02,0-0.04-0.01-0.06
		c-0.02-0.02-0.05-0.02-0.07-0.01c-0.03,0.02-0.04,0.06-0.01,0.08c0.01,0.02,0.04,0.02,0.06,0.02l0,0
		c-0.06,0.05-0.11,0.11-0.14,0.17c-0.01,0.01-0.02,0.01-0.03,0.01l-0.11-0.05c-0.01,0-0.01-0.01-0.01-0.02
		c0-0.03-0.02-0.06-0.05-0.07c-0.04-0.02-0.08,0-0.1,0.03c-0.02,0.04-0.01,0.09,0.03,0.11C8.37,59,8.4,58.99,8.42,58.98
		c0.01,0,0.01,0,0.02,0l0.11,0.05c0.01,0,0.01,0.02,0.01,0.03c-0.02,0.05-0.04,0.1-0.04,0.16c0,0,0,0,0,0l0,0c0,0,0,0,0,0
		c-0.01-0.02-0.03-0.03-0.05-0.03c-0.03,0-0.05,0.02-0.06,0.04c-0.01,0.03,0.02,0.07,0.05,0.07c0.02,0,0.04-0.01,0.05-0.03l0.01,0
		c-0.01,0.08,0,0.15,0.02,0.23c0,0.01,0,0.02-0.01,0.02L8.4,59.56c-0.01,0-0.01,0-0.02,0c-0.02-0.02-0.05-0.03-0.08-0.02
		c-0.04,0.01-0.06,0.06-0.05,0.1c0.01,0.04,0.06,0.07,0.1,0.05c0.03-0.01,0.05-0.03,0.05-0.06c0-0.01,0.01-0.01,0.01-0.01
		c0.02-0.01,0.09-0.03,0.12-0.04c0.01,0,0.02,0,0.02,0.01c0.02,0.05,0.05,0.1,0.08,0.14c0,0,0,0.01,0,0.01l0,0c0,0,0,0-0.01,0
		c-0.02-0.01-0.04,0-0.06,0.02c-0.02,0.02-0.02,0.05-0.01,0.07c0.02,0.03,0.06,0.04,0.08,0.02c0.02-0.01,0.02-0.03,0.02-0.05
		c0,0,0-0.01,0-0.01l0,0c0.05,0.05,0.1,0.1,0.16,0.14c0.01,0.01,0.02,0.02,0.01,0.04l-0.05,0.1c0,0.01-0.01,0.01-0.02,0.02
		c-0.03,0-0.05,0.02-0.06,0.05c-0.02,0.04,0,0.08,0.03,0.1c0.04,0.02,0.09,0.01,0.11-0.03c0.01-0.02,0.01-0.05,0-0.08
		c-0.01-0.01-0.01-0.02,0-0.03l0.05-0.1c0.01-0.01,0.02-0.02,0.04-0.01C8.98,59.98,9.03,60,9.08,60c0,0,0.01,0,0.01,0.01l0,0.01
		c0,0,0,0,0,0.01c-0.02,0.01-0.03,0.03-0.03,0.05c0,0.03,0.02,0.05,0.04,0.06c0.03,0.01,0.07-0.02,0.07-0.05
		c0-0.02-0.01-0.04-0.02-0.05c0,0,0,0,0-0.01l0-0.01c0,0,0-0.01,0.01-0.01c0.07,0,0.15,0,0.22-0.02c0.01,0,0.02,0,0.02,0.01
		l0.04,0.12c0,0.01,0,0.01,0,0.02c-0.02,0.02-0.03,0.05-0.02,0.08c0.01,0.04,0.06,0.06,0.1,0.05c0.04-0.01,0.07-0.06,0.05-0.1
		c-0.01-0.03-0.03-0.05-0.06-0.05c-0.01,0-0.01,0-0.01-0.01l-0.04-0.12c0-0.01,0-0.02,0.01-0.02c0.05-0.02,0.1-0.05,0.14-0.08
		c0,0,0.01,0,0.01,0l0.01,0.01c0,0,0,0,0,0.01c-0.01,0.02,0,0.04,0.01,0.06c0.02,0.02,0.05,0.02,0.07,0.01
		c0.03-0.02,0.04-0.06,0.01-0.08c-0.01-0.02-0.03-0.02-0.05-0.02c0,0,0,0-0.01,0l-0.01-0.01c0,0,0-0.01,0-0.01
		c0.05-0.05,0.1-0.1,0.14-0.16c0.01-0.01,0.02-0.02,0.03-0.01l0.1,0.05c0.01,0,0.01,0.01,0.01,0.02c0,0.03,0.02,0.05,0.05,0.07
		c0.04,0.02,0.08,0,0.1-0.03c0.02-0.04,0.01-0.09-0.03-0.11c-0.03-0.01-0.05-0.01-0.08,0c-0.01,0-0.02,0.01-0.03,0l-0.1-0.05
		c-0.01-0.01-0.02-0.02-0.01-0.03c0.02-0.05,0.03-0.1,0.04-0.15c0,0,0-0.01,0.01-0.01l0,0c0,0,0.01,0,0.01,0
		c0.01,0.02,0.03,0.03,0.05,0.03c0.03,0,0.05-0.02,0.06-0.04c0.01-0.03-0.02-0.07-0.05-0.07c-0.02,0-0.04,0.01-0.05,0.02
		c0,0,0,0-0.01,0l0,0c0,0-0.01,0-0.01-0.01c0-0.07,0-0.14-0.02-0.2c0-0.02,0.01-0.03,0.02-0.04l0.09-0.03c0.01,0,0.02,0,0.03,0.01
		C10.04,59.12,10.07,59.12,10.09,59.11z"/>
	<path id="XMLID_21_" class="st2" d="M68.7,8.78c0.06-0.02,0.09-0.09,0.07-0.15c-0.02-0.05-0.08-0.08-0.13-0.07
		c-0.04,0.01-0.07,0.04-0.08,0.08c0,0.02-0.02,0.03-0.03,0.03L68.4,8.72c-0.02,0.01-0.05,0-0.06-0.03c-0.03-0.06-0.06-0.13-0.1-0.18
		c0-0.01,0-0.01,0-0.02l0,0c0,0,0.01,0,0.01,0c0.03,0.01,0.06,0,0.08-0.02c0.03-0.03,0.03-0.07,0.01-0.1
		c-0.03-0.04-0.08-0.05-0.12-0.02C68.21,8.37,68.2,8.4,68.2,8.42c0,0,0,0.01,0,0.01l0,0c-0.01,0-0.01,0-0.02,0
		c-0.06-0.07-0.14-0.14-0.22-0.19c-0.02-0.01-0.03-0.05-0.02-0.07l0.05-0.1c0.01-0.02,0.03-0.04,0.06-0.05c0.01,0,0.01,0,0.02-0.01
		c0.03-0.01,0.05-0.03,0.06-0.06c0.02-0.05,0-0.11-0.05-0.13C68.04,7.8,68,7.8,67.97,7.82c-0.02,0.01-0.04,0.03-0.06,0.05
		c-0.02,0.03-0.02,0.07,0,0.1c0.01,0.02,0.01,0.05,0,0.07l-0.05,0.1c-0.01,0.02-0.04,0.04-0.07,0.03c-0.07-0.03-0.14-0.04-0.21-0.06
		l0-0.01c0.03-0.01,0.05-0.04,0.05-0.07c0-0.04-0.02-0.07-0.06-0.08c-0.02-0.01-0.04,0-0.05,0c-0.03,0.01-0.05,0.04-0.05,0.07
		c0,0.03,0.01,0.06,0.04,0.08l0,0.01c-0.1-0.01-0.2,0-0.3,0.02c-0.03,0.01-0.05-0.01-0.06-0.03L67.1,7.97
		c-0.01-0.02,0-0.03,0.01-0.05c0.02-0.03,0.03-0.07,0.02-0.1c-0.02-0.05-0.06-0.08-0.11-0.08c-0.02,0-0.03,0-0.05,0.01
		c-0.05,0.02-0.07,0.07-0.06,0.12c0.01,0.04,0.04,0.08,0.08,0.09c0.02,0,0.03,0.02,0.04,0.03l0.04,0.12c0.01,0.03,0,0.05-0.03,0.06
		c-0.07,0.03-0.13,0.07-0.19,0.11l0,0c0,0,0-0.01,0-0.01c0.01-0.03,0-0.06-0.02-0.08c-0.03-0.03-0.07-0.03-0.1-0.01
		c-0.04,0.03-0.05,0.08-0.02,0.12c0.02,0.03,0.05,0.04,0.08,0.03l0,0c-0.08,0.07-0.15,0.15-0.2,0.25c-0.01,0.01-0.02,0.02-0.04,0.01
		L66.4,8.52c-0.01,0-0.02-0.01-0.02-0.02c0-0.04-0.03-0.08-0.07-0.1c-0.05-0.02-0.11,0-0.14,0.05c-0.03,0.06-0.01,0.13,0.05,0.15
		c0.04,0.02,0.08,0.01,0.11-0.01c0.01-0.01,0.02-0.01,0.03,0l0.15,0.08c0.01,0.01,0.02,0.02,0.01,0.04
		c-0.03,0.07-0.05,0.15-0.06,0.22c0,0,0,0-0.01,0l-0.01,0c0,0,0,0,0,0c-0.01-0.03-0.04-0.04-0.07-0.04c-0.04,0-0.07,0.03-0.08,0.06
		c-0.01,0.05,0.02,0.09,0.07,0.1c0.03,0,0.06-0.01,0.08-0.04l0.01,0c-0.01,0.11,0,0.22,0.03,0.32c0,0.01,0,0.02-0.01,0.03L66.3,9.42
		c-0.01,0-0.02,0-0.02-0.01c-0.03-0.03-0.07-0.04-0.11-0.03c-0.05,0.02-0.09,0.08-0.07,0.14c0.02,0.06,0.08,0.1,0.14,0.08
		c0.04-0.01,0.07-0.05,0.08-0.09c0-0.01,0.01-0.02,0.02-0.02c0.04-0.01,0.13-0.04,0.17-0.06c0.01,0,0.02,0,0.03,0.01
		c0.03,0.07,0.07,0.14,0.11,0.2c0,0,0,0.01,0,0.01l0,0c0,0-0.01,0-0.01,0c-0.03-0.01-0.06,0-0.08,0.02
		c-0.03,0.03-0.03,0.07-0.01,0.1c0.03,0.04,0.08,0.05,0.12,0.02c0.02-0.02,0.03-0.05,0.03-0.07c0,0,0-0.01,0-0.01l0,0
		c0.07,0.08,0.15,0.14,0.23,0.2c0.02,0.01,0.02,0.03,0.02,0.05l-0.07,0.14c-0.01,0.01-0.02,0.02-0.03,0.02
		c-0.04,0-0.08,0.03-0.09,0.07c-0.02,0.05,0,0.11,0.05,0.14c0.06,0.03,0.13,0.01,0.15-0.05c0.02-0.04,0.01-0.08,0-0.11
		c-0.01-0.01-0.01-0.03,0-0.04l0.07-0.14c0.01-0.02,0.03-0.03,0.05-0.02c0.07,0.03,0.14,0.05,0.21,0.06c0.01,0,0.01,0.01,0.01,0.01
		l0,0.01c0,0,0,0.01-0.01,0.01c-0.03,0.01-0.04,0.04-0.04,0.07c0,0.04,0.03,0.07,0.06,0.08c0.05,0.01,0.09-0.02,0.1-0.07
		c0-0.03-0.01-0.05-0.03-0.07c0,0,0-0.01,0-0.01l0-0.01c0-0.01,0.01-0.01,0.01-0.01c0.1,0.01,0.21,0,0.31-0.03
		c0.01,0,0.02,0,0.03,0.01l0.06,0.17c0,0.01,0,0.02-0.01,0.02c-0.03,0.03-0.04,0.07-0.03,0.11c0.02,0.05,0.08,0.09,0.14,0.07
		c0.06-0.02,0.1-0.08,0.08-0.14c-0.01-0.04-0.05-0.07-0.09-0.08c-0.01,0-0.02-0.01-0.02-0.01l-0.06-0.17c0-0.01,0-0.02,0.01-0.03
		c0.07-0.03,0.14-0.07,0.2-0.11c0,0,0.01,0,0.01,0l0.01,0.01c0,0,0,0.01,0,0.01c-0.01,0.03,0,0.06,0.02,0.08
		c0.03,0.03,0.07,0.03,0.1,0.01c0.04-0.03,0.05-0.08,0.02-0.12c-0.02-0.02-0.04-0.03-0.07-0.03c0,0-0.01,0-0.01,0l-0.01-0.01
		c0,0,0-0.01,0-0.01c0.08-0.07,0.14-0.15,0.2-0.23c0.01-0.02,0.03-0.02,0.05-0.01l0.14,0.07c0.01,0.01,0.02,0.02,0.02,0.03
		c0,0.04,0.03,0.08,0.07,0.09c0.05,0.02,0.11,0,0.14-0.05c0.03-0.06,0.01-0.13-0.05-0.15c-0.04-0.02-0.08-0.01-0.11,0.01
		c-0.01,0.01-0.02,0.01-0.04,0l-0.14-0.07c-0.02-0.01-0.02-0.03-0.02-0.05c0.03-0.07,0.05-0.14,0.06-0.21
		c0-0.01,0.01-0.01,0.01-0.01l0.01,0c0,0,0.01,0,0.01,0.01c0.01,0.03,0.04,0.04,0.07,0.04c0.04,0,0.07-0.03,0.08-0.06
		c0.01-0.05-0.02-0.09-0.07-0.1c-0.03,0-0.05,0.01-0.07,0.03c0,0-0.01,0-0.01,0l-0.01,0c-0.01,0-0.01-0.01-0.01-0.01
		c0.01-0.1,0-0.19-0.02-0.29c-0.01-0.02,0.01-0.05,0.03-0.06l0.13-0.04c0.01,0,0.03,0,0.04,0.01C68.63,8.79,68.66,8.8,68.7,8.78z"/>
	<path id="XMLID_57_" class="st2" d="M28.51,70.54c0.13-0.24,0.04-0.53-0.2-0.66c-0.21-0.11-0.48-0.03-0.61,0.17
		c-0.1,0.15-0.1,0.33-0.02,0.48c0.03,0.06,0.03,0.13,0,0.19l-0.28,0.51c-0.05,0.09-0.17,0.13-0.26,0.09
		c-0.27-0.12-0.55-0.22-0.83-0.28c-0.03-0.01-0.05-0.03-0.04-0.06l0-0.02c0-0.02,0.02-0.03,0.03-0.04c0.11-0.05,0.19-0.16,0.2-0.29
		c0.01-0.16-0.1-0.31-0.25-0.35c-0.2-0.06-0.4,0.08-0.44,0.28c-0.02,0.12,0.02,0.23,0.1,0.3c0.01,0.01,0.02,0.03,0.02,0.05l0,0.01
		c0,0.03-0.03,0.05-0.06,0.05c-0.41-0.04-0.83-0.03-1.23,0.05c-0.12,0.02-0.23-0.05-0.27-0.16l-0.13-0.45
		c-0.03-0.11-0.01-0.23,0.05-0.32c0.01-0.02,0.03-0.05,0.04-0.07c0.05-0.11,0.06-0.25,0.01-0.37c-0.08-0.21-0.31-0.33-0.53-0.29
		c-0.16,0.03-0.29,0.14-0.35,0.28c-0.04,0.1-0.06,0.21-0.02,0.33c0.04,0.14,0.14,0.25,0.27,0.31c0.09,0.04,0.17,0.12,0.19,0.22
		l0.14,0.47c0.03,0.11-0.03,0.23-0.13,0.27c-0.28,0.11-0.55,0.25-0.8,0.42l-0.03-0.04c0.04-0.12,0.03-0.26-0.07-0.36
		c-0.1-0.11-0.28-0.14-0.41-0.07c-0.07,0.04-0.13,0.1-0.16,0.16c-0.05,0.11-0.05,0.25,0.03,0.36c0.08,0.11,0.21,0.16,0.34,0.14
		l0.01,0.02c-0.33,0.26-0.62,0.57-0.86,0.93c-0.06,0.1-0.19,0.12-0.29,0.07l-0.48-0.27c-0.06-0.04-0.11-0.1-0.11-0.17
		c-0.01-0.15-0.1-0.29-0.24-0.37c-0.19-0.1-0.41-0.07-0.56,0.07c-0.05,0.05-0.09,0.1-0.12,0.17c-0.08,0.2-0.01,0.43,0.16,0.56
		c0.15,0.11,0.34,0.12,0.49,0.04c0.07-0.03,0.14-0.03,0.21,0l0.48,0.27c0.1,0.06,0.14,0.18,0.1,0.28c-0.13,0.28-0.22,0.58-0.27,0.87
		l-0.02,0c-0.01,0-0.03-0.01-0.03-0.02c-0.06-0.1-0.16-0.18-0.29-0.18c-0.16-0.01-0.31,0.1-0.35,0.25c-0.06,0.2,0.08,0.4,0.28,0.44
		c0.13,0.02,0.26-0.04,0.34-0.14l0.03,0c-0.05,0.46-0.03,0.92,0.07,1.36c0.01,0.06-0.02,0.12-0.09,0.14l-0.68,0.2
		c-0.04,0.01-0.09,0-0.12-0.03c-0.12-0.12-0.32-0.18-0.5-0.11c-0.23,0.08-0.36,0.33-0.3,0.56c0.06,0.26,0.33,0.42,0.59,0.35
		c0.17-0.05,0.29-0.19,0.33-0.35c0.01-0.04,0.04-0.07,0.08-0.09l0.69-0.2c0.06-0.02,0.12,0.01,0.15,0.07
		c0.11,0.31,0.26,0.6,0.44,0.87c0.01,0.01,0,0.02-0.01,0.03l-0.02,0.01c-0.01,0-0.01,0.01-0.02,0c-0.12-0.04-0.25-0.02-0.35,0.08
		c-0.11,0.11-0.14,0.28-0.06,0.42c0.1,0.18,0.34,0.23,0.51,0.11c0.11-0.08,0.16-0.21,0.14-0.34l0.03-0.02
		c0.28,0.35,0.63,0.67,1.03,0.92c0.04,0.03,0.06,0.08,0.03,0.13l-0.37,0.66c-0.02,0.03-0.05,0.05-0.09,0.05
		c-0.17,0-0.33,0.09-0.42,0.24c-0.12,0.21-0.04,0.51,0.16,0.63c0.23,0.14,0.53,0.06,0.67-0.17c0.09-0.16,0.08-0.35-0.02-0.49
		c-0.02-0.03-0.02-0.07,0-0.1c0.08-0.14,0.28-0.5,0.37-0.66c0.02-0.04,0.08-0.06,0.13-0.04c0.3,0.14,0.61,0.24,0.93,0.31
		c0.02,0,0.04,0.03,0.03,0.05l0,0c0,0.01-0.01,0.03-0.02,0.03c-0.11,0.06-0.18,0.17-0.19,0.3c0,0.16,0.1,0.3,0.25,0.34
		c0.2,0.06,0.4-0.08,0.44-0.28c0.02-0.13-0.03-0.25-0.12-0.32c-0.01-0.01-0.02-0.03-0.02-0.04l0-0.02c0.43,0.05,0.87,0.03,1.29-0.06
		c0.09-0.02,0.17,0.03,0.2,0.12l0.18,0.62c0.02,0.06,0,0.12-0.04,0.16c-0.11,0.12-0.15,0.3-0.09,0.48c0.08,0.23,0.33,0.36,0.56,0.3
		c0.26-0.06,0.42-0.33,0.35-0.59c-0.05-0.16-0.17-0.28-0.32-0.32c-0.06-0.02-0.1-0.06-0.12-0.12l-0.18-0.62
		c-0.02-0.09,0.02-0.18,0.11-0.21c0.28-0.11,0.56-0.24,0.81-0.41c0.02-0.01,0.05-0.01,0.06,0.01l0.03,0.04
		c0.01,0.01,0.01,0.03,0.01,0.04c-0.04,0.11-0.02,0.25,0.07,0.35c0.11,0.12,0.29,0.15,0.43,0.07c0.18-0.1,0.23-0.34,0.11-0.51
		c-0.07-0.1-0.18-0.15-0.29-0.14c-0.02,0-0.03-0.01-0.04-0.02l-0.03-0.04C28,78.41,28,78.38,28.02,78.37
		c0.34-0.27,0.64-0.6,0.89-0.99c0.03-0.04,0.08-0.06,0.12-0.03l0.67,0.37c0.03,0.02,0.05,0.05,0.05,0.09c0,0.17,0.08,0.34,0.24,0.42
		c0.21,0.12,0.51,0.04,0.63-0.16c0.14-0.23,0.06-0.53-0.17-0.67c-0.16-0.09-0.35-0.08-0.49,0.02c-0.03,0.02-0.07,0.02-0.1,0
		l-0.67-0.37c-0.04-0.02-0.06-0.08-0.04-0.12c0.15-0.3,0.25-0.61,0.32-0.93c0-0.02,0.02-0.03,0.04-0.03l0.06,0.01
		c0.01,0,0.02,0.01,0.03,0.02c0.05,0.11,0.16,0.2,0.3,0.2c0.16,0.01,0.31-0.1,0.35-0.25c0.06-0.2-0.08-0.4-0.28-0.44
		c-0.12-0.02-0.23,0.03-0.31,0.11c-0.01,0.01-0.02,0.02-0.04,0.01l-0.05-0.01c-0.02,0-0.03-0.02-0.03-0.04
		c0.05-0.43,0.03-0.87-0.06-1.29c-0.02-0.08,0.03-0.16,0.11-0.18l0.64-0.18c0.05-0.01,0.11,0,0.15,0.04
		c0.12,0.11,0.31,0.16,0.48,0.1c0.23-0.08,0.36-0.33,0.3-0.56c-0.06-0.26-0.33-0.42-0.59-0.35c-0.17,0.05-0.28,0.18-0.33,0.33
		c-0.01,0.05-0.05,0.09-0.11,0.11l-0.63,0.18c-0.08,0.02-0.16-0.02-0.19-0.1c-0.1-0.29-0.24-0.57-0.41-0.83
		c-0.01-0.02-0.01-0.05,0.01-0.07l0.02-0.02c0.01-0.01,0.03-0.01,0.05-0.01c0.11,0.04,0.25,0.02,0.35-0.07
		c0.12-0.11,0.15-0.29,0.07-0.43c-0.1-0.18-0.34-0.23-0.51-0.11c-0.1,0.07-0.15,0.18-0.14,0.29c0,0.02-0.01,0.03-0.02,0.04
		l-0.02,0.01c-0.02,0.02-0.05,0.01-0.07-0.01c-0.25-0.32-0.56-0.6-0.91-0.84c-0.09-0.06-0.12-0.18-0.07-0.27l0.28-0.51
		c0.03-0.06,0.09-0.1,0.16-0.1C28.29,70.78,28.43,70.69,28.51,70.54z"/>
	<path id="XMLID_69_" class="st2" d="M38.23,16.28c0.37-0.67,0.12-1.52-0.57-1.86c-0.61-0.31-1.37-0.1-1.74,0.47
		c-0.28,0.43-0.28,0.95-0.06,1.36c0.09,0.17,0.08,0.37-0.01,0.54l-0.8,1.44c-0.15,0.26-0.47,0.37-0.75,0.24
		c-0.77-0.35-1.56-0.61-2.36-0.79c-0.08-0.02-0.13-0.09-0.12-0.17l0.01-0.04c0.01-0.05,0.04-0.09,0.09-0.11
		c0.31-0.15,0.54-0.45,0.56-0.83c0.03-0.46-0.28-0.89-0.72-1.01c-0.58-0.16-1.15,0.22-1.24,0.79c-0.05,0.33,0.07,0.65,0.29,0.87
		c0.04,0.04,0.06,0.09,0.05,0.14l-0.01,0.04c-0.01,0.08-0.09,0.14-0.17,0.13c-1.17-0.13-2.35-0.08-3.49,0.14
		c-0.33,0.06-0.66-0.14-0.76-0.47l-0.36-1.27c-0.09-0.31-0.03-0.64,0.14-0.91c0.04-0.06,0.08-0.13,0.11-0.2
		c0.14-0.32,0.17-0.7,0.02-1.06c-0.24-0.59-0.88-0.95-1.5-0.83c-0.46,0.09-0.82,0.4-0.99,0.79c-0.13,0.28-0.16,0.61-0.07,0.93
		c0.12,0.41,0.41,0.72,0.77,0.87c0.27,0.11,0.47,0.34,0.55,0.61l0.38,1.35c0.09,0.32-0.07,0.65-0.38,0.77
		c-0.8,0.31-1.56,0.7-2.28,1.18l-0.07-0.1c0.13-0.33,0.07-0.73-0.19-1.02c-0.29-0.32-0.78-0.41-1.17-0.21
		c-0.21,0.11-0.36,0.27-0.45,0.47c-0.15,0.32-0.13,0.71,0.09,1.01c0.23,0.31,0.6,0.45,0.96,0.39l0.04,0.05
		c-0.93,0.74-1.76,1.63-2.45,2.65c-0.18,0.27-0.55,0.35-0.83,0.2l-1.36-0.76c-0.18-0.1-0.3-0.29-0.32-0.49
		c-0.04-0.43-0.28-0.83-0.69-1.05c-0.53-0.3-1.17-0.19-1.59,0.21c-0.14,0.13-0.25,0.3-0.33,0.49c-0.22,0.56-0.03,1.22,0.45,1.58
		c0.43,0.32,0.97,0.34,1.4,0.12c0.19-0.09,0.41-0.09,0.59,0.01l1.37,0.76c0.28,0.16,0.41,0.51,0.27,0.81
		c-0.36,0.81-0.62,1.64-0.78,2.48l-0.06-0.01c-0.04-0.01-0.08-0.03-0.1-0.07c-0.16-0.3-0.46-0.51-0.83-0.52
		c-0.45-0.02-0.87,0.28-0.99,0.72c-0.16,0.58,0.22,1.15,0.79,1.24c0.38,0.06,0.75-0.11,0.96-0.4l0.07,0.01
		c-0.15,1.3-0.07,2.6,0.2,3.86c0.04,0.18-0.07,0.35-0.24,0.4l-1.94,0.55c-0.12,0.03-0.24,0-0.33-0.08c-0.35-0.35-0.9-0.5-1.41-0.32
		c-0.64,0.23-1.02,0.93-0.86,1.59c0.18,0.75,0.95,1.19,1.68,0.98c0.49-0.14,0.84-0.53,0.94-0.99c0.03-0.12,0.12-0.21,0.24-0.24
		l1.95-0.56c0.17-0.05,0.35,0.04,0.42,0.21c0.32,0.87,0.74,1.7,1.25,2.48c0.02,0.03,0.01,0.07-0.02,0.09l-0.05,0.04
		c-0.02,0.01-0.04,0.02-0.06,0.01c-0.33-0.11-0.71-0.05-1,0.22c-0.33,0.31-0.4,0.81-0.18,1.2c0.29,0.52,0.97,0.66,1.44,0.32
		c0.31-0.23,0.45-0.6,0.39-0.96l0.09-0.07c0.8,1.01,1.78,1.9,2.92,2.62c0.12,0.08,0.17,0.24,0.1,0.37l-1.04,1.88
		c-0.05,0.09-0.15,0.14-0.25,0.14c-0.48-0.01-0.95,0.24-1.2,0.69c-0.34,0.6-0.12,1.44,0.47,1.8c0.66,0.41,1.52,0.18,1.89-0.49
		c0.25-0.45,0.22-0.98-0.05-1.39c-0.06-0.09-0.06-0.19-0.01-0.28c0.22-0.39,0.79-1.43,1.05-1.88c0.07-0.13,0.23-0.17,0.36-0.11
		c0.86,0.4,1.74,0.7,2.63,0.88c0.06,0.01,0.11,0.07,0.1,0.14l0,0c-0.01,0.04-0.03,0.07-0.07,0.09c-0.3,0.16-0.52,0.47-0.53,0.86
		c-0.01,0.44,0.29,0.85,0.72,0.96c0.58,0.16,1.15-0.22,1.24-0.79c0.06-0.36-0.09-0.7-0.34-0.91c-0.03-0.03-0.05-0.07-0.05-0.12
		l0.01-0.06c1.24,0.14,2.48,0.08,3.68-0.16c0.25-0.05,0.49,0.1,0.56,0.34l0.5,1.76c0.05,0.17,0,0.34-0.11,0.47
		c-0.31,0.35-0.43,0.86-0.26,1.35c0.23,0.64,0.93,1.02,1.59,0.86c0.75-0.18,1.19-0.95,0.98-1.68c-0.13-0.46-0.49-0.8-0.91-0.92
		c-0.16-0.05-0.3-0.17-0.34-0.34l-0.5-1.76c-0.07-0.24,0.06-0.5,0.3-0.59c0.81-0.3,1.58-0.69,2.31-1.16
		c0.06-0.04,0.13-0.02,0.17,0.03l0.08,0.11c0.03,0.03,0.03,0.08,0.01,0.12c-0.12,0.33-0.07,0.71,0.19,1c0.3,0.34,0.82,0.43,1.22,0.2
		c0.52-0.3,0.66-0.97,0.31-1.44c-0.2-0.28-0.52-0.42-0.83-0.41c-0.04,0-0.09-0.02-0.11-0.05l-0.08-0.11
		c-0.04-0.05-0.03-0.13,0.02-0.17c0.96-0.78,1.82-1.71,2.52-2.8c0.08-0.12,0.23-0.16,0.36-0.09l1.9,1.06
		c0.09,0.05,0.14,0.14,0.14,0.24c-0.01,0.48,0.24,0.95,0.69,1.2c0.6,0.34,1.44,0.12,1.8-0.47c0.41-0.66,0.18-1.52-0.49-1.89
		c-0.45-0.25-0.98-0.21-1.39,0.05c-0.08,0.05-0.19,0.06-0.28,0.01l-1.9-1.05c-0.12-0.07-0.17-0.22-0.11-0.35
		c0.41-0.86,0.72-1.74,0.91-2.64c0.01-0.06,0.07-0.1,0.13-0.09l0.16,0.03c0.04,0.01,0.07,0.03,0.08,0.07
		c0.14,0.32,0.45,0.56,0.84,0.58c0.46,0.03,0.89-0.28,1.01-0.72c0.16-0.58-0.22-1.15-0.79-1.24c-0.34-0.05-0.67,0.07-0.88,0.31
		c-0.03,0.03-0.06,0.04-0.1,0.04l-0.15-0.02c-0.06-0.01-0.1-0.06-0.09-0.12c0.14-1.23,0.08-2.47-0.16-3.66
		c-0.05-0.22,0.09-0.45,0.31-0.51l1.81-0.52c0.15-0.04,0.31,0,0.42,0.1c0.35,0.33,0.87,0.46,1.37,0.28
		c0.64-0.23,1.02-0.93,0.86-1.59c-0.18-0.75-0.95-1.19-1.68-0.98c-0.47,0.13-0.81,0.5-0.93,0.94c-0.04,0.15-0.15,0.27-0.3,0.31
		l-1.8,0.51c-0.22,0.06-0.45-0.06-0.53-0.27c-0.3-0.82-0.69-1.61-1.16-2.35c-0.04-0.06-0.03-0.15,0.04-0.19l0.06-0.05
		c0.03-0.02,0.09-0.03,0.13-0.02c0.33,0.12,0.71,0.07,0.99-0.19c0.34-0.3,0.43-0.82,0.2-1.22c-0.3-0.52-0.97-0.66-1.44-0.31
		c-0.28,0.2-0.42,0.52-0.41,0.83c0,0.05-0.02,0.09-0.06,0.12l-0.05,0.04c-0.06,0.04-0.15,0.03-0.2-0.03
		c-0.72-0.9-1.58-1.71-2.58-2.38c-0.25-0.17-0.33-0.5-0.18-0.76l0.81-1.45c0.09-0.17,0.26-0.28,0.45-0.29
		C37.59,16.94,38,16.7,38.23,16.28z"/>
	<g id="XMLID_1_">
		<g id="XMLID_15_">
			
				<linearGradient id="XMLID_124_" gradientUnits="userSpaceOnUse" x1="412.3328" y1="-350.3715" x2="412.3328" y2="-334.2238" gradientTransform="matrix(0.9394 0.3427 -0.3427 0.9394 -438.0322 201.9807)">
				<stop  offset="0" style="stop-color:#58709F"/>
				<stop  offset="0.9919" style="stop-color:#28588E"/>
			</linearGradient>
			<path id="XMLID_19_" class="st37" d="M71.01,20.2c1.69-2.66-0.04-3.95-0.04-3.95c-0.19-0.16-0.39-0.31-0.61-0.43l0.02-0.03
				c0.1-0.01,0.2-0.08,0.24-0.19c0.04-0.12,0-0.26-0.1-0.33c-0.06-0.04-0.12-0.06-0.18-0.05c-0.1,0-0.2,0.06-0.25,0.16
				c-0.05,0.1-0.04,0.21,0.03,0.3l-0.01,0.02c-0.31-0.14-0.65-0.24-1.01-0.28c-0.09-0.01-0.16-0.09-0.16-0.19l0.01-0.45
				c0-0.06,0.03-0.12,0.08-0.15c0.1-0.07,0.18-0.18,0.18-0.32c0.01-0.18-0.11-0.33-0.26-0.38c-0.05-0.02-0.11-0.03-0.17-0.02
				c-0.17,0.02-0.32,0.15-0.35,0.33c-0.02,0.15,0.04,0.29,0.15,0.38c0.05,0.04,0.08,0.09,0.08,0.15l-0.01,0.45
				c0,0.09-0.08,0.17-0.17,0.18c-0.26,0.02-0.5,0.06-0.74,0.13l-0.01-0.02c0-0.01,0-0.02,0.01-0.03c0.06-0.08,0.07-0.19,0.02-0.28
				c-0.05-0.12-0.19-0.19-0.32-0.16c-0.17,0.04-0.27,0.21-0.21,0.37c0.04,0.11,0.13,0.18,0.23,0.19l0.01,0.02
				c-0.35,0.13-0.68,0.33-0.97,0.56c-0.04,0.03-0.1,0.03-0.14-0.01l-0.4-0.43c-0.02-0.03-0.03-0.06-0.02-0.1
				c0.04-0.14,0.01-0.3-0.11-0.4c-0.14-0.13-0.37-0.14-0.52-0.01c-0.17,0.15-0.18,0.4-0.03,0.56c0.1,0.11,0.25,0.14,0.38,0.11
				c0.03-0.01,0.07,0,0.09,0.03l0.4,0.43c0.04,0.04,0.04,0.1,0,0.13c-0.18,0.2-0.34,0.41-0.47,0.65c0,0.01-0.02,0.01-0.03,0.01
				l-0.02-0.01c-0.01,0-0.01-0.01-0.01-0.01c-0.01-0.1-0.08-0.19-0.19-0.23c-0.12-0.04-0.26,0-0.33,0.11
				c-0.09,0.15-0.04,0.34,0.11,0.41c0.1,0.05,0.21,0.04,0.3-0.03l0.03,0.01c-0.15,0.34-0.25,0.71-0.29,1.1
				c0,0.04-0.04,0.07-0.08,0.07l-0.62-0.02c-0.03,0-0.06-0.02-0.07-0.05c-0.06-0.12-0.19-0.21-0.34-0.22
				c-0.2-0.01-0.39,0.16-0.4,0.36c-0.02,0.22,0.16,0.41,0.38,0.42c0.15,0,0.28-0.08,0.35-0.2c0.01-0.03,0.04-0.04,0.07-0.04
				c0.13,0,0.47,0.01,0.62,0.02c0.04,0,0.07,0.04,0.08,0.08c0.01,0.27,0.05,0.54,0.12,0.79c0.01,0.02,0,0.04-0.02,0.04l0,0
				c-0.01,0-0.02,0-0.03-0.01c-0.08-0.06-0.19-0.07-0.29-0.02c-0.11,0.06-0.18,0.19-0.15,0.31c0.04,0.17,0.21,0.27,0.37,0.21
				c0.1-0.03,0.17-0.11,0.19-0.21c0-0.01,0.01-0.02,0.02-0.03l0.02-0.01c0.13,0.34,0.31,0.65,0.53,0.92
				c0.05,0.06,0.04,0.14-0.01,0.19l-0.38,0.36c-0.04,0.03-0.09,0.04-0.14,0.03c-0.13-0.03-0.28,0-0.38,0.11
				c-0.13,0.14-0.14,0.37-0.01,0.52c0.15,0.17,0.4,0.18,0.56,0.03c0.1-0.09,0.14-0.23,0.12-0.36c-0.01-0.05,0-0.1,0.04-0.13
				l0.38-0.36c0.05-0.05,0.14-0.05,0.19,0c0.18,0.17,0.39,0.32,0.6,0.44c0.02,0.01,0.02,0.03,0.01,0.05l-0.02,0.04
				c-0.01,0.01-0.02,0.02-0.03,0.02c-0.1,0.01-0.19,0.08-0.23,0.18c-0.05,0.12,0,0.27,0.11,0.34c0.14,0.09,0.34,0.04,0.41-0.11
				c0.04-0.09,0.04-0.19-0.01-0.27c-0.01-0.01-0.01-0.02,0-0.04l0.02-0.04c0.01-0.02,0.03-0.02,0.05-0.02
				c0.33,0.14,0.68,0.24,1.06,0.28c0.04,0,0.07,0.04,0.07,0.08l0,0.08c0.1-0.03,0.19-0.06,0.29-0.1c0.01-0.03,0.04-0.05,0.07-0.05
				c0.02,0,0.04,0,0.06,0C69.65,21.91,70.33,21.27,71.01,20.2z"/>
			<path id="XMLID_18_" class="st18" d="M68.72,22.29c0.04-0.02,0.08-0.03,0.13-0.05c-0.02,0-0.04,0-0.06,0
				C68.76,22.25,68.74,22.27,68.72,22.29z"/>
			
				<linearGradient id="XMLID_125_" gradientUnits="userSpaceOnUse" x1="416.2618" y1="-358.2547" x2="416.2618" y2="-341.3992" gradientTransform="matrix(0.9394 0.3427 -0.3427 0.9394 -438.0322 201.9807)">
				<stop  offset="0" style="stop-color:#58709F"/>
				<stop  offset="0.9919" style="stop-color:#28588E"/>
			</linearGradient>
			<path id="XMLID_17_" class="st38" d="M72.27,19.09l0.48,0.01c0.05,0,0.11,0.03,0.14,0.08c0.07,0.11,0.18,0.18,0.32,0.19
				c0.22,0.01,0.4-0.17,0.4-0.39c0-0.2-0.16-0.37-0.35-0.38c-0.15-0.01-0.28,0.05-0.36,0.17c-0.03,0.05-0.08,0.07-0.14,0.07
				l-0.48-0.01c-0.09,0-0.16-0.07-0.16-0.16c-0.01-0.24-0.05-0.48-0.11-0.71c-0.01-0.02,0.01-0.05,0.03-0.05l0.01,0
				c0.01,0,0.03,0,0.04,0.01c0.08,0.06,0.19,0.08,0.29,0.03c0.12-0.05,0.19-0.19,0.16-0.32c-0.04-0.17-0.21-0.27-0.37-0.21
				c-0.09,0.03-0.16,0.1-0.18,0.19c0,0.01-0.01,0.03-0.03,0.03l-0.01,0c-0.02,0.01-0.05,0-0.06-0.03c-0.12-0.32-0.29-0.61-0.5-0.88
				c-0.06-0.08-0.05-0.19,0.02-0.26l0.28-0.26c0.07-0.06,0.16-0.09,0.25-0.08c0.02,0,0.04,0,0.07,0c0.1-0.01,0.2-0.05,0.27-0.13
				c0.12-0.14,0.13-0.35,0.01-0.5c-0.08-0.11-0.21-0.16-0.34-0.15c-0.09,0-0.18,0.04-0.25,0.11c-0.09,0.08-0.13,0.2-0.12,0.31
				c0.01,0.08-0.02,0.17-0.08,0.22l-0.29,0.28c-0.07,0.07-0.18,0.07-0.25,0c0,0,1.11,0.59,0.09,3.4c-0.44,1.2-1.41,2.27-2.21,2.6
				c0.26-0.01,0.5-0.05,0.74-0.11c0.02,0,0.03,0,0.04,0.02l0.01,0.04c0,0.01,0,0.02-0.01,0.03c-0.06,0.08-0.08,0.19-0.04,0.29
				c0.05,0.12,0.19,0.19,0.32,0.16c0.17-0.04,0.27-0.21,0.21-0.37c-0.03-0.09-0.11-0.16-0.2-0.19c-0.01,0-0.02-0.01-0.02-0.02
				l-0.01-0.04c-0.01-0.02,0-0.03,0.02-0.04c0.33-0.13,0.64-0.31,0.92-0.53c0.05-0.04,0.13-0.04,0.17,0.01l0.37,0.4
				c0.03,0.03,0.04,0.08,0.03,0.12c-0.04,0.13,0,0.29,0.11,0.39c0.14,0.13,0.37,0.14,0.52,0.01c0.17-0.15,0.18-0.4,0.03-0.56
				c-0.1-0.1-0.24-0.14-0.36-0.11c-0.04,0.01-0.09,0-0.12-0.04l-0.37-0.39c-0.05-0.05-0.05-0.12,0-0.17
				c0.17-0.19,0.32-0.39,0.45-0.61c0.01-0.02,0.03-0.03,0.05-0.02l0.02,0.01c0.01,0.01,0.02,0.02,0.02,0.03
				c0.01,0.1,0.08,0.19,0.18,0.23c0.12,0.05,0.27,0,0.34-0.11c0.09-0.14,0.04-0.34-0.11-0.41c-0.09-0.04-0.19-0.04-0.27,0.01
				c-0.01,0.01-0.03,0.01-0.04,0l-0.02-0.01c-0.02-0.01-0.03-0.03-0.02-0.05c0.14-0.3,0.23-0.63,0.27-0.98
				C72.11,19.15,72.19,19.08,72.27,19.09z"/>
			
				<linearGradient id="XMLID_126_" gradientUnits="userSpaceOnUse" x1="414.678" y1="-350.3715" x2="414.678" y2="-334.2237" gradientTransform="matrix(0.9394 0.3427 -0.3427 0.9394 -438.0322 201.9807)">
				<stop  offset="0" style="stop-color:#58709F"/>
				<stop  offset="0.9919" style="stop-color:#28588E"/>
			</linearGradient>
			<path id="XMLID_16_" class="st39" d="M68.42,22.94c0,0.03-0.02,0.05-0.04,0.07c-0.13,0.06-0.21,0.19-0.22,0.34
				c-0.01,0.2,0.16,0.39,0.36,0.4c0.22,0.02,0.41-0.16,0.42-0.38c0-0.15-0.08-0.28-0.2-0.35c-0.03-0.01-0.04-0.04-0.04-0.07
				l0.02-0.63c0-0.01,0-0.02,0.01-0.03c-0.1,0.04-0.2,0.07-0.29,0.1L68.42,22.94z"/>
		</g>
		<g id="XMLID_2_">
			
				<linearGradient id="XMLID_127_" gradientUnits="userSpaceOnUse" x1="411.717" y1="-363.5045" x2="411.717" y2="-339.2355" gradientTransform="matrix(0.9394 0.3427 -0.3427 0.9394 -438.0322 201.9807)">
				<stop  offset="0" style="stop-color:#58709F"/>
				<stop  offset="0.9919" style="stop-color:#28588E"/>
			</linearGradient>
			<path id="XMLID_14_" class="st40" d="M67.58,19.17c-0.12,0.33-0.49,0.5-0.82,0.38c-0.33-0.12-0.5-0.49-0.38-0.82
				c0.12-0.33,0.49-0.5,0.82-0.38C67.53,18.47,67.7,18.84,67.58,19.17z"/>
			
				<linearGradient id="XMLID_128_" gradientUnits="userSpaceOnUse" x1="413.5807" y1="-363.5047" x2="413.5807" y2="-339.2354" gradientTransform="matrix(0.9394 0.3427 -0.3427 0.9394 -438.0322 201.9807)">
				<stop  offset="0" style="stop-color:#58709F"/>
				<stop  offset="0.9919" style="stop-color:#28588E"/>
			</linearGradient>
			<path id="XMLID_13_" class="st41" d="M69.65,18.23c-0.08,0.21-0.3,0.31-0.51,0.24c-0.21-0.08-0.31-0.3-0.24-0.51
				c0.08-0.21,0.3-0.31,0.51-0.24C69.62,17.8,69.72,18.02,69.65,18.23z"/>
			
				<linearGradient id="XMLID_129_" gradientUnits="userSpaceOnUse" x1="414.0991" y1="-363.5043" x2="414.0991" y2="-339.2355" gradientTransform="matrix(0.9394 0.3427 -0.3427 0.9394 -438.0322 201.9807)">
				<stop  offset="0" style="stop-color:#58709F"/>
				<stop  offset="0.9919" style="stop-color:#28588E"/>
			</linearGradient>
			<path id="XMLID_12_" class="st42" d="M69.47,19.86c-0.05,0.14-0.21,0.21-0.35,0.16c-0.14-0.05-0.21-0.21-0.16-0.35
				c0.05-0.14,0.21-0.21,0.35-0.16C69.45,19.56,69.52,19.72,69.47,19.86z"/>
			
				<linearGradient id="XMLID_130_" gradientUnits="userSpaceOnUse" x1="412.433" y1="-363.5042" x2="412.433" y2="-339.2357" gradientTransform="matrix(0.9394 0.3427 -0.3427 0.9394 -438.0322 201.9807)">
				<stop  offset="0" style="stop-color:#58709F"/>
				<stop  offset="0.9919" style="stop-color:#28588E"/>
			</linearGradient>
			<path id="XMLID_11_" class="st43" d="M68.78,16.64c-0.03,0.09-0.14,0.14-0.23,0.11c-0.09-0.03-0.14-0.14-0.11-0.23
				c0.03-0.09,0.14-0.14,0.23-0.11C68.76,16.44,68.81,16.54,68.78,16.64z"/>
			
				<linearGradient id="XMLID_131_" gradientUnits="userSpaceOnUse" x1="412.3218" y1="-363.5046" x2="412.3218" y2="-339.2354" gradientTransform="matrix(0.9394 0.3427 -0.3427 0.9394 -438.0322 201.9807)">
				<stop  offset="0" style="stop-color:#58709F"/>
				<stop  offset="0.9919" style="stop-color:#28588E"/>
			</linearGradient>
			<path id="XMLID_10_" class="st44" d="M68.12,18.09c-0.03,0.09-0.14,0.14-0.23,0.11c-0.09-0.03-0.14-0.14-0.11-0.23
				c0.03-0.09,0.14-0.14,0.23-0.11C68.11,17.9,68.16,18,68.12,18.09z"/>
			
				<linearGradient id="XMLID_132_" gradientUnits="userSpaceOnUse" x1="411.0753" y1="-363.5047" x2="411.0753" y2="-339.2354" gradientTransform="matrix(0.9394 0.3427 -0.3427 0.9394 -438.0322 201.9807)">
				<stop  offset="0" style="stop-color:#58709F"/>
				<stop  offset="0.9919" style="stop-color:#28588E"/>
			</linearGradient>
			<path id="XMLID_9_" class="st45" d="M67.11,17.23c-0.03,0.09-0.14,0.14-0.23,0.11c-0.09-0.03-0.14-0.14-0.11-0.23
				c0.03-0.09,0.14-0.14,0.23-0.11C67.1,17.03,67.15,17.13,67.11,17.23z"/>
			
				<linearGradient id="XMLID_133_" gradientUnits="userSpaceOnUse" x1="412.7476" y1="-363.5047" x2="412.7476" y2="-339.2354" gradientTransform="matrix(0.9394 0.3427 -0.3427 0.9394 -438.0322 201.9807)">
				<stop  offset="0" style="stop-color:#58709F"/>
				<stop  offset="0.9919" style="stop-color:#28588E"/>
			</linearGradient>
			<path id="XMLID_8_" class="st46" d="M67.64,20.67c-0.03,0.09-0.14,0.14-0.23,0.11c-0.09-0.03-0.14-0.14-0.11-0.23
				c0.03-0.09,0.14-0.14,0.23-0.11S67.67,20.58,67.64,20.67z"/>
			
				<linearGradient id="XMLID_134_" gradientUnits="userSpaceOnUse" x1="414.9568" y1="-363.5048" x2="414.9568" y2="-339.2353" gradientTransform="matrix(0.9394 0.3427 -0.3427 0.9394 -438.0322 201.9807)">
				<stop  offset="0" style="stop-color:#58709F"/>
				<stop  offset="0.9919" style="stop-color:#28588E"/>
			</linearGradient>
			<path id="XMLID_7_" class="st47" d="M69.73,21.37c-0.03,0.09-0.14,0.14-0.23,0.11c-0.09-0.03-0.14-0.14-0.11-0.23
				c0.03-0.09,0.14-0.14,0.23-0.11C69.72,21.18,69.77,21.28,69.73,21.37z"/>
			
				<linearGradient id="XMLID_135_" gradientUnits="userSpaceOnUse" x1="415.5" y1="-363.5045" x2="415.5" y2="-339.2354" gradientTransform="matrix(0.9394 0.3427 -0.3427 0.9394 -438.0322 201.9807)">
				<stop  offset="0" style="stop-color:#58709F"/>
				<stop  offset="0.9919" style="stop-color:#28588E"/>
			</linearGradient>
			<path id="XMLID_6_" class="st48" d="M71.05,19.35c-0.03,0.09-0.14,0.14-0.23,0.11c-0.09-0.03-0.14-0.14-0.11-0.23
				c0.03-0.09,0.14-0.14,0.23-0.11C71.04,19.16,71.08,19.26,71.05,19.35z"/>
			
				<linearGradient id="XMLID_136_" gradientUnits="userSpaceOnUse" x1="414.5983" y1="-363.5046" x2="414.5983" y2="-339.2354" gradientTransform="matrix(0.9394 0.3427 -0.3427 0.9394 -438.0322 201.9807)">
				<stop  offset="0" style="stop-color:#58709F"/>
				<stop  offset="0.9919" style="stop-color:#28588E"/>
			</linearGradient>
			<path id="XMLID_5_" class="st49" d="M70.76,17.5c-0.03,0.09-0.14,0.14-0.23,0.11c-0.09-0.03-0.14-0.14-0.11-0.23
				c0.03-0.09,0.14-0.14,0.23-0.11C70.75,17.31,70.8,17.41,70.76,17.5z"/>
		</g>
	</g>
	<g id="XMLID_3_">
		<g id="XMLID_34_">
			
				<linearGradient id="XMLID_137_" gradientUnits="userSpaceOnUse" x1="377.6556" y1="-303.9923" x2="377.6556" y2="-296.1413" gradientTransform="matrix(0.9394 0.3427 -0.3427 0.9394 -438.0322 201.9807)">
				<stop  offset="0" style="stop-color:#58709F"/>
				<stop  offset="0.9919" style="stop-color:#28588E"/>
			</linearGradient>
			<path id="XMLID_38_" class="st50" d="M21.71,48.77c0.82-1.29-0.02-1.92-0.02-1.92c-0.09-0.08-0.19-0.15-0.3-0.21l0.01-0.02
				c0.05-0.01,0.1-0.04,0.11-0.09c0.02-0.06,0-0.12-0.05-0.16c-0.03-0.02-0.06-0.03-0.09-0.03c-0.05,0-0.1,0.03-0.12,0.08
				c-0.02,0.05-0.02,0.1,0.01,0.15l0,0.01c-0.15-0.07-0.32-0.12-0.49-0.14c-0.05-0.01-0.08-0.05-0.08-0.09l0.01-0.22
				c0-0.03,0.02-0.06,0.04-0.07c0.05-0.03,0.09-0.09,0.09-0.15c0-0.09-0.05-0.16-0.13-0.19c-0.03-0.01-0.05-0.01-0.08-0.01
				c-0.08,0.01-0.15,0.07-0.17,0.16c-0.01,0.07,0.02,0.14,0.08,0.18c0.02,0.02,0.04,0.05,0.04,0.07l-0.01,0.22
				c0,0.05-0.04,0.08-0.08,0.09c-0.12,0.01-0.24,0.03-0.36,0.06l0-0.01c0-0.01,0-0.01,0-0.02c0.03-0.04,0.03-0.09,0.01-0.14
				c-0.03-0.06-0.09-0.09-0.15-0.08c-0.08,0.02-0.13,0.1-0.1,0.18c0.02,0.05,0.06,0.09,0.11,0.09l0,0.01
				c-0.17,0.07-0.33,0.16-0.47,0.27c-0.02,0.02-0.05,0.01-0.07,0l-0.19-0.21c-0.01-0.01-0.02-0.03-0.01-0.05
				c0.02-0.07,0-0.14-0.05-0.2c-0.07-0.07-0.18-0.07-0.25,0c-0.08,0.07-0.09,0.2-0.01,0.27c0.05,0.05,0.12,0.07,0.18,0.05
				c0.02,0,0.03,0,0.05,0.01l0.2,0.21c0.02,0.02,0.02,0.05,0,0.07c-0.09,0.1-0.16,0.2-0.23,0.32c0,0-0.01,0.01-0.01,0l-0.01,0
				c0,0,0,0,0-0.01c-0.01-0.05-0.04-0.09-0.09-0.11c-0.06-0.02-0.13,0-0.16,0.05c-0.05,0.07-0.02,0.16,0.05,0.2
				c0.05,0.02,0.1,0.02,0.15-0.01l0.01,0.01c-0.07,0.17-0.12,0.35-0.14,0.53c0,0.02-0.02,0.04-0.04,0.04l-0.3-0.01
				c-0.01,0-0.03-0.01-0.03-0.02c-0.03-0.06-0.09-0.1-0.16-0.11c-0.1,0-0.19,0.08-0.2,0.18c-0.01,0.11,0.08,0.2,0.18,0.2
				c0.07,0,0.14-0.04,0.17-0.1c0.01-0.01,0.02-0.02,0.03-0.02c0.06,0,0.23,0.01,0.3,0.01c0.02,0,0.04,0.02,0.04,0.04
				c0,0.13,0.03,0.26,0.06,0.39c0,0.01,0,0.02-0.01,0.02l0,0c-0.01,0-0.01,0-0.02,0c-0.04-0.03-0.09-0.03-0.14-0.01
				c-0.06,0.03-0.09,0.09-0.07,0.15c0.02,0.08,0.1,0.13,0.18,0.1c0.05-0.02,0.08-0.06,0.09-0.1c0-0.01,0.01-0.01,0.01-0.01l0.01,0
				c0.06,0.16,0.15,0.31,0.26,0.45c0.02,0.03,0.02,0.07-0.01,0.09l-0.19,0.18c-0.02,0.02-0.04,0.02-0.07,0.02
				c-0.06-0.02-0.14,0-0.19,0.05c-0.07,0.07-0.07,0.18,0,0.25c0.07,0.08,0.2,0.09,0.27,0.01c0.05-0.05,0.07-0.11,0.06-0.17
				c0-0.02,0-0.05,0.02-0.06l0.19-0.18c0.03-0.02,0.07-0.02,0.09,0c0.09,0.08,0.19,0.15,0.29,0.21c0.01,0,0.01,0.01,0.01,0.02
				l-0.01,0.02c0,0.01-0.01,0.01-0.01,0.01c-0.05,0.01-0.09,0.04-0.11,0.09c-0.02,0.06,0,0.13,0.05,0.17
				c0.07,0.05,0.16,0.02,0.2-0.05c0.02-0.04,0.02-0.09,0-0.13c0-0.01,0-0.01,0-0.02l0.01-0.02c0-0.01,0.01-0.01,0.02-0.01
				c0.16,0.07,0.33,0.12,0.51,0.13c0.02,0,0.03,0.02,0.03,0.04l0,0.04c0.05-0.01,0.09-0.03,0.14-0.05c0.01-0.01,0.02-0.02,0.03-0.02
				c0.01,0,0.02,0,0.03,0C21.04,49.61,21.37,49.3,21.71,48.77z"/>
			<path id="XMLID_37_" class="st18" d="M20.59,49.79c0.02-0.01,0.04-0.02,0.06-0.02c-0.01,0-0.02,0-0.03,0
				C20.61,49.77,20.6,49.78,20.59,49.79z"/>
			
				<linearGradient id="XMLID_138_" gradientUnits="userSpaceOnUse" x1="379.5659" y1="-307.8252" x2="379.5659" y2="-299.63" gradientTransform="matrix(0.9394 0.3427 -0.3427 0.9394 -438.0322 201.9807)">
				<stop  offset="0" style="stop-color:#58709F"/>
				<stop  offset="0.9919" style="stop-color:#28588E"/>
			</linearGradient>
			<path id="XMLID_36_" class="st51" d="M22.32,48.23l0.23,0.01c0.03,0,0.05,0.01,0.07,0.04c0.03,0.05,0.09,0.09,0.16,0.09
				c0.11,0,0.2-0.08,0.2-0.19c0-0.1-0.08-0.18-0.17-0.19c-0.07-0.01-0.14,0.03-0.17,0.08c-0.02,0.02-0.04,0.03-0.07,0.03l-0.23-0.01
				c-0.04,0-0.08-0.04-0.08-0.08c-0.01-0.12-0.02-0.23-0.05-0.35c0-0.01,0-0.02,0.01-0.03l0.01,0c0.01,0,0.01,0,0.02,0
				c0.04,0.03,0.09,0.04,0.14,0.02c0.06-0.03,0.09-0.09,0.08-0.15c-0.02-0.08-0.1-0.13-0.18-0.1c-0.04,0.01-0.08,0.05-0.09,0.09
				c0,0.01-0.01,0.01-0.01,0.02l0,0c-0.01,0-0.02,0-0.03-0.01c-0.06-0.15-0.14-0.3-0.24-0.43c-0.03-0.04-0.03-0.09,0.01-0.12
				l0.14-0.13c0.03-0.03,0.08-0.05,0.12-0.04c0.01,0,0.02,0,0.03,0c0.05,0,0.1-0.02,0.13-0.07c0.06-0.07,0.06-0.17,0.01-0.24
				c-0.04-0.05-0.1-0.08-0.16-0.07c-0.04,0-0.09,0.02-0.12,0.05c-0.04,0.04-0.06,0.1-0.06,0.15c0,0.04-0.01,0.08-0.04,0.11
				l-0.14,0.13c-0.03,0.03-0.09,0.03-0.12,0c0,0,0.54,0.29,0.04,1.65c-0.21,0.58-0.69,1.1-1.07,1.26c0.12-0.01,0.25-0.02,0.36-0.06
				c0.01,0,0.02,0,0.02,0.01l0.01,0.02c0,0.01,0,0.01,0,0.01c-0.03,0.04-0.04,0.09-0.02,0.14c0.03,0.06,0.09,0.09,0.15,0.08
				c0.08-0.02,0.13-0.1,0.1-0.18c-0.02-0.05-0.05-0.08-0.1-0.09c-0.01,0-0.01-0.01-0.01-0.01l-0.01-0.02c0-0.01,0-0.02,0.01-0.02
				c0.16-0.06,0.31-0.15,0.45-0.26c0.03-0.02,0.06-0.02,0.08,0.01l0.18,0.19c0.01,0.02,0.02,0.04,0.01,0.06
				c-0.02,0.07,0,0.14,0.05,0.19c0.07,0.07,0.18,0.07,0.25,0c0.08-0.07,0.09-0.2,0.01-0.27c-0.05-0.05-0.11-0.07-0.18-0.06
				c-0.02,0-0.04,0-0.06-0.02l-0.18-0.19c-0.02-0.02-0.02-0.06,0-0.08c0.08-0.09,0.16-0.19,0.22-0.3c0.01-0.01,0.02-0.01,0.03-0.01
				l0.01,0c0.01,0,0.01,0.01,0.01,0.01c0.01,0.05,0.04,0.09,0.09,0.11c0.06,0.02,0.13,0,0.17-0.05c0.05-0.07,0.02-0.16-0.05-0.2
				c-0.04-0.02-0.09-0.02-0.13,0c-0.01,0-0.01,0-0.02,0l-0.01,0c-0.01,0-0.01-0.02-0.01-0.03c0.07-0.15,0.11-0.31,0.13-0.48
				C22.24,48.26,22.28,48.23,22.32,48.23z"/>
			
				<linearGradient id="XMLID_139_" gradientUnits="userSpaceOnUse" x1="378.7958" y1="-303.9923" x2="378.7958" y2="-296.1412" gradientTransform="matrix(0.9394 0.3427 -0.3427 0.9394 -438.0322 201.9807)">
				<stop  offset="0" style="stop-color:#58709F"/>
				<stop  offset="0.9919" style="stop-color:#28588E"/>
			</linearGradient>
			<path id="XMLID_35_" class="st52" d="M20.44,50.11c0,0.01-0.01,0.03-0.02,0.03c-0.06,0.03-0.1,0.09-0.11,0.16
				c0,0.1,0.08,0.19,0.17,0.2c0.11,0.01,0.2-0.08,0.2-0.18c0-0.07-0.04-0.14-0.1-0.17c-0.01-0.01-0.02-0.02-0.02-0.03l0.01-0.3
				c0,0,0-0.01,0-0.01c-0.05,0.02-0.09,0.03-0.14,0.05L20.44,50.11z"/>
		</g>
		<g id="XMLID_23_">
			
				<linearGradient id="XMLID_140_" gradientUnits="userSpaceOnUse" x1="377.3562" y1="-310.3777" x2="377.3562" y2="-298.578" gradientTransform="matrix(0.9394 0.3427 -0.3427 0.9394 -438.0322 201.9807)">
				<stop  offset="0" style="stop-color:#58709F"/>
				<stop  offset="0.9919" style="stop-color:#28588E"/>
			</linearGradient>
			<path id="XMLID_33_" class="st53" d="M20.04,48.27c-0.06,0.16-0.24,0.25-0.4,0.19c-0.16-0.06-0.25-0.24-0.19-0.4
				c0.06-0.16,0.24-0.25,0.4-0.19C20.01,47.93,20.1,48.11,20.04,48.27z"/>
			
				<linearGradient id="XMLID_141_" gradientUnits="userSpaceOnUse" x1="378.2623" y1="-310.3777" x2="378.2623" y2="-298.5779" gradientTransform="matrix(0.9394 0.3427 -0.3427 0.9394 -438.0322 201.9807)">
				<stop  offset="0" style="stop-color:#58709F"/>
				<stop  offset="0.9919" style="stop-color:#28588E"/>
			</linearGradient>
			<path id="XMLID_32_" class="st54" d="M21.04,47.82c-0.04,0.1-0.15,0.15-0.25,0.12c-0.1-0.04-0.15-0.15-0.12-0.25
				c0.04-0.1,0.15-0.15,0.25-0.12C21.03,47.61,21.08,47.72,21.04,47.82z"/>
			
				<linearGradient id="XMLID_142_" gradientUnits="userSpaceOnUse" x1="378.5144" y1="-310.3776" x2="378.5144" y2="-298.578" gradientTransform="matrix(0.9394 0.3427 -0.3427 0.9394 -438.0322 201.9807)">
				<stop  offset="0" style="stop-color:#58709F"/>
				<stop  offset="0.9919" style="stop-color:#28588E"/>
			</linearGradient>
			<path id="XMLID_31_" class="st55" d="M20.96,48.61c-0.03,0.07-0.1,0.1-0.17,0.08c-0.07-0.03-0.1-0.1-0.08-0.17
				c0.03-0.07,0.1-0.1,0.17-0.08S20.98,48.54,20.96,48.61z"/>
			
				<linearGradient id="XMLID_143_" gradientUnits="userSpaceOnUse" x1="377.7043" y1="-310.3775" x2="377.7043" y2="-298.578" gradientTransform="matrix(0.9394 0.3427 -0.3427 0.9394 -438.0322 201.9807)">
				<stop  offset="0" style="stop-color:#58709F"/>
				<stop  offset="0.9919" style="stop-color:#28588E"/>
			</linearGradient>
			<path id="XMLID_30_" class="st56" d="M20.62,47.04c-0.02,0.05-0.07,0.07-0.11,0.05c-0.05-0.02-0.07-0.07-0.05-0.11
				c0.02-0.05,0.07-0.07,0.11-0.05C20.61,46.95,20.64,47,20.62,47.04z"/>
			
				<linearGradient id="XMLID_144_" gradientUnits="userSpaceOnUse" x1="377.6502" y1="-310.3777" x2="377.6502" y2="-298.5779" gradientTransform="matrix(0.9394 0.3427 -0.3427 0.9394 -438.0322 201.9807)">
				<stop  offset="0" style="stop-color:#58709F"/>
				<stop  offset="0.9919" style="stop-color:#28588E"/>
			</linearGradient>
			<path id="XMLID_29_" class="st57" d="M20.3,47.75c-0.02,0.05-0.07,0.07-0.11,0.05c-0.05-0.02-0.07-0.07-0.05-0.11
				c0.02-0.05,0.07-0.07,0.11-0.05C20.3,47.66,20.32,47.71,20.3,47.75z"/>
			
				<linearGradient id="XMLID_145_" gradientUnits="userSpaceOnUse" x1="377.0442" y1="-310.3777" x2="377.0442" y2="-298.5779" gradientTransform="matrix(0.9394 0.3427 -0.3427 0.9394 -438.0322 201.9807)">
				<stop  offset="0" style="stop-color:#58709F"/>
				<stop  offset="0.9919" style="stop-color:#28588E"/>
			</linearGradient>
			<path id="XMLID_28_" class="st58" d="M19.81,47.33c-0.02,0.05-0.07,0.07-0.11,0.05c-0.05-0.02-0.07-0.07-0.05-0.11
				c0.02-0.05,0.07-0.07,0.11-0.05C19.8,47.23,19.83,47.28,19.81,47.33z"/>
			
				<linearGradient id="XMLID_146_" gradientUnits="userSpaceOnUse" x1="377.8572" y1="-310.3777" x2="377.8572" y2="-298.5779" gradientTransform="matrix(0.9394 0.3427 -0.3427 0.9394 -438.0322 201.9807)">
				<stop  offset="0" style="stop-color:#58709F"/>
				<stop  offset="0.9919" style="stop-color:#28588E"/>
			</linearGradient>
			<path id="XMLID_27_" class="st59" d="M20.07,49c-0.02,0.05-0.07,0.07-0.11,0.05c-0.05-0.02-0.07-0.07-0.05-0.11
				c0.02-0.05,0.07-0.07,0.11-0.05C20.06,48.91,20.08,48.96,20.07,49z"/>
			
				<linearGradient id="XMLID_147_" gradientUnits="userSpaceOnUse" x1="378.9314" y1="-310.3778" x2="378.9314" y2="-298.5779" gradientTransform="matrix(0.9394 0.3427 -0.3427 0.9394 -438.0322 201.9807)">
				<stop  offset="0" style="stop-color:#58709F"/>
				<stop  offset="0.9919" style="stop-color:#28588E"/>
			</linearGradient>
			<path id="XMLID_26_" class="st60" d="M21.08,49.35c-0.02,0.05-0.07,0.07-0.11,0.05c-0.05-0.02-0.07-0.07-0.05-0.11
				c0.02-0.05,0.07-0.07,0.11-0.05C21.08,49.25,21.1,49.3,21.08,49.35z"/>
			
				<linearGradient id="XMLID_148_" gradientUnits="userSpaceOnUse" x1="379.1955" y1="-310.3777" x2="379.1955" y2="-298.5779" gradientTransform="matrix(0.9394 0.3427 -0.3427 0.9394 -438.0322 201.9807)">
				<stop  offset="0" style="stop-color:#58709F"/>
				<stop  offset="0.9919" style="stop-color:#28588E"/>
			</linearGradient>
			<path id="XMLID_25_" class="st61" d="M21.72,48.36c-0.02,0.05-0.07,0.07-0.11,0.05c-0.05-0.02-0.07-0.07-0.05-0.11
				c0.02-0.05,0.07-0.07,0.11-0.05C21.72,48.27,21.74,48.32,21.72,48.36z"/>
			
				<linearGradient id="XMLID_149_" gradientUnits="userSpaceOnUse" x1="378.757" y1="-310.3777" x2="378.757" y2="-298.5779" gradientTransform="matrix(0.9394 0.3427 -0.3427 0.9394 -438.0322 201.9807)">
				<stop  offset="0" style="stop-color:#58709F"/>
				<stop  offset="0.9919" style="stop-color:#28588E"/>
			</linearGradient>
			<path id="XMLID_24_" class="st62" d="M21.59,47.46c-0.02,0.05-0.07,0.07-0.11,0.05c-0.05-0.02-0.07-0.07-0.05-0.11
				c0.02-0.05,0.07-0.07,0.11-0.05C21.58,47.37,21.6,47.42,21.59,47.46z"/>
		</g>
	</g>
	<g>
		<defs>
			<rect id="SVGID_14_" y="2.46" width="94.74" height="97.54"/>
		</defs>
		<clipPath id="SVGID_2_">
			<use xlink:href="#SVGID_14_"  style="overflow:visible;"/>
		</clipPath>
		<g class="st5">
			<g>
				<path class="st64" d="M34.56,30.67l-1.99,0.84c0,0,0.27,8.68-1.74,14.65c-2.02,5.98-0.41,11.03,2.84,9.82
					c0,0,0.19,3.64,2.89,4.48c2.7,0.84,6.05,1.49,6.05,1.49l9.08,0.57c0,0,8.62,2.7,9.27-8.75c0,0,2.94-0.14,2.98-4.13
					c0.05-3.98-3.99-10.46-3.99-18.71C59.96,22.69,34.56,30.67,34.56,30.67L34.56,30.67z M33.34,23.84l-0.64-1.13
					c0,0-1.21-6.73-1.13-9.08c0.08-2.35,2.19-5.3,8.16-7.99c5.97-2.69,10.68,2.86,12.02,4.04c0,0,6.39-0.25,7.99,1.51
					c1.6,1.77,0.37,12.19,0.37,12.19L33.34,23.84z"/>
				<path class="st65" d="M30.32,102.19c1.16-6.07,0.33-11.64-0.84-19.92c-2.23-4.33-3.94-12.21-2.76-17.85s0.87-12.02,0.87-12.02
					s11.57-4.22,12.55-4.71c0.98-0.49,1.07-2.56,1.07-2.56l5.19-1.12l5.19,1.12c0,0,0.09,2.07,1.07,2.56
					c0.98,0.49,12.11,2.94,12.11,2.94s0.13,8.15,1.31,13.79c1.18,5.64-0.53,13.52-2.76,17.85c-1.17,8.28-2,13.85-0.84,19.92H30.32z"
					/>
				<path class="st65" d="M46.4,32.04L46.4,32.04c2.86,0,5.2,2.34,5.2,5.2v9.95c0,2.86-2.34,5.2-5.2,5.2l0,0
					c-2.86,0-5.2-2.34-5.2-5.2v-9.95C41.21,34.38,43.55,32.04,46.4,32.04z"/>
				<g>
					<path class="st66" d="M57.74,27.47c0.08,0.01,0.16,0.03,0.24,0.04l0,0l0,0c1.47,0.32,2.59,1.62,2.6,3.19
						c0.02,1.83-1.44,3.33-3.27,3.35c-1.83,0.02-3.33-1.44-3.35-3.27c-0.01-1.06,0.48-2.01,1.25-2.63c-0.09,0.98,0.06,2.19,1.3,2.32
						l-0.02-1.91C56.49,27.79,57.21,27.44,57.74,27.47z"/>
					<path class="st66" d="M35.11,27.31c-0.08,0.01-0.16,0.02-0.24,0.04l0,0l0,0c-1.48,0.3-2.61,1.59-2.65,3.16
						c-0.05,1.83,1.4,3.35,3.22,3.39c1.83,0.05,3.35-1.4,3.39-3.22c0.03-1.06-0.45-2.02-1.21-2.64c0.08,0.98-0.09,2.19-1.33,2.3
						l0.05-1.91C36.36,27.65,35.64,27.29,35.11,27.31z"/>
				</g>
				<path class="st65" d="M46.41,44.03c-6.18,0-11.33-7.62-11.33-13.64V22.4c0-6.23,5.1-11.33,11.33-11.33h0
					c6.23,0,11.33,5.1,11.33,11.33v7.82C57.73,36.82,53.24,44.03,46.41,44.03z"/>
				<path class="st66" d="M53.1,18.33c0,0-1.92-0.86-4.12,0.42c-2.2,1.28-5.51,6.47-11.64,5.8c-6.14-0.67,8.03-6.52,8.03-6.52
					s7.15-3.57,7.53-3.36C53.27,14.88,53.1,18.33,53.1,18.33z"/>
				<path class="st64" d="M43.04,24.68c0.24,0.11,0.34,0.39,0.24,0.63c-0.11,0.24-0.39,0.34-0.63,0.24c0,0-1.44-0.68-2.8,0.18
					c-0.22,0.14-0.52,0.07-0.66-0.15c-0.14-0.22-0.07-0.52,0.15-0.66C41.14,23.79,43.03,24.68,43.04,24.68z"/>
				<path class="st64" d="M54.24,24.9c0.23,0.13,0.31,0.42,0.18,0.65c-0.13,0.23-0.42,0.31-0.65,0.18c0,0-1.38-0.79-2.81-0.05
					c-0.23,0.12-0.52,0.03-0.64-0.2c-0.12-0.23-0.03-0.52,0.2-0.64C52.42,23.85,54.23,24.89,54.24,24.9z"/>
				<path class="st21" d="M43.6,35.89c-0.02,1.85,1.47,3.37,3.32,3.38c1.85,0.02,3.37-1.47,3.38-3.32l-0.01,0
					c0-0.32-0.25-0.58-0.57-0.58l-5.54-0.05C43.87,35.32,43.61,35.58,43.6,35.89L43.6,35.89z"/>
				<path class="st21" d="M44.82,38.52c0.57,0.47,1.3,0.75,2.1,0.76c0.65,0.01,1.26-0.17,1.78-0.49c-0.25-0.69-1-1.21-1.91-1.25
					C45.93,37.49,45.17,37.9,44.82,38.52z"/>
				<path class="st21" d="M49.54,35.37l-5.2-0.05c-0.09,0.58,0.17,1.16,0.56,1.29c0.47,0.16,4.24,0.09,4.51-0.2
					C49.53,36.27,49.55,35.81,49.54,35.37z"/>
				<path class="st67" d="M47.18,30.64c0.24,0.69,0.67,1.94,0.63,2.13c-0.05,0.27-1.49,0.34-1.87-0.07c-0.25-0.28,0.06-1.31,0.33-2
					C46.64,29.76,46.85,29.71,47.18,30.64z"/>
				<path class="st21" d="M58.7,49.26l-2.23,30.13l4.59,0.12c0,0,0.9,14.57,2.57,22.69H29.33C31,94.07,31.89,79.5,31.89,79.5
					l4.59-0.12l-2.23-30.13C40.79,59.96,52.16,59.96,58.7,49.26z"/>
				<path class="st21" d="M51.84,52.93c0,0-0.57-0.7-0.76-1.21c-0.19-0.51-0.13-0.86,0.44-1.43c0.57-0.57,2.73-2.57,3.14-2.95
					c0.41-0.38,0.84-0.21,1.06,0.02c0.22,0.22,1.06,1.23,1.06,1.23S55.35,51.29,51.84,52.93z"/>
				<path class="st68" d="M51.84,52.93c-0.07,0.23-4.75,22.3-5.54,27.41c-0.07,0.47-1.63,9.04-1.63,9.19
					c0,0.22,2.56,6.85,4.77,12.73h19.66c-1.24-6.79-3.38-18.08-3.39-18.45c-0.03-0.81,1.11-11.1,1.11-11.1s-2.89-15.2,1.92-19.59
					c0,0-0.46-0.8-1.41-1.53c-0.95-0.73-10.55-2.99-10.55-2.99L51.84,52.93z"/>
				<path class="st69" d="M47.12,75.84c-0.37,1.93-0.67,3.52-0.82,4.49c-0.07,0.47-1.63,9.04-1.63,9.19c0,0.22,2.56,6.85,4.77,12.73
					h6.02l-7.31-20.43l3.98-7.76l-2.55-0.22C49.58,73.84,48.53,74.68,47.12,75.84z"/>
				<path class="st70" d="M49.92,62.04c-1.64,7.87-3.73,18.16-4.04,16.53l8.4-13.5l-2.72-3.8C51.56,61.27,52.2,60.81,49.92,62.04z"
					/>
				<path class="st66" d="M41.22,47.62l7.74-3.06l2.64-1.04v-1.05c-1.49,0.97-3.22,1.55-5.12,1.56c-0.02,0-0.05,0-0.07,0
					c-0.02,0-0.05,0-0.07,0c-1.84-0.02-3.58-0.71-5.13-1.83v3c-0.03,0.37-0.2,2.05-1.07,2.48c-0.15,0.08-0.54,0.2-1.1,0.35
					c0.11,0.1,0.22,0.2,0.33,0.31L41.22,47.62z"/>
				<path class="st64" d="M40.47,27.72c-0.33,0-0.64,0.11-0.89,0.3c-0.08-0.02-0.2-0.08-0.27-0.22c-0.04-0.08-0.14-0.12-0.23-0.07
					c-0.08,0.04-0.12,0.14-0.07,0.23c0.08,0.16,0.2,0.25,0.32,0.32l-0.01,0.02c-0.14-0.04-0.29-0.11-0.41-0.27
					c-0.06-0.07-0.17-0.08-0.24-0.03c-0.07,0.06-0.08,0.16-0.03,0.24c0.15,0.18,0.33,0.29,0.5,0.35l0,0
					c-0.16-0.01-0.34-0.05-0.51-0.16c-0.08-0.05-0.18-0.03-0.23,0.05c-0.05,0.08-0.03,0.18,0.05,0.23c0.18,0.11,0.35,0.17,0.52,0.2
					l0.07,0.01c-0.02,0.09-0.02,0.17-0.02,0.26c0,0.81,0.65,1.46,1.46,1.46c0.81,0,1.46-0.65,1.46-1.46
					C41.93,28.37,41.28,27.72,40.47,27.72L40.47,27.72z M52.34,27.72c-0.81,0-1.46,0.65-1.46,1.46c0,0.81,0.65,1.46,1.46,1.46
					c0.81,0,1.46-0.65,1.46-1.46c0-0.09-0.01-0.18-0.02-0.27l0.04-0.01c0.17-0.03,0.35-0.09,0.52-0.2c0.08-0.05,0.1-0.15,0.05-0.23
					c-0.05-0.08-0.16-0.1-0.23-0.05c-0.16,0.11-0.33,0.15-0.49,0.16l0-0.01c0.16-0.06,0.33-0.16,0.48-0.34
					c0.06-0.07,0.05-0.18-0.03-0.24c-0.07-0.06-0.18-0.05-0.24,0.03c-0.12,0.14-0.26,0.22-0.39,0.26l-0.02-0.02
					c0.11-0.06,0.22-0.16,0.3-0.31c0.04-0.08,0.01-0.18-0.07-0.23c-0.08-0.04-0.18-0.01-0.23,0.07c-0.07,0.13-0.18,0.19-0.26,0.21
					C52.98,27.83,52.67,27.72,52.34,27.72z"/>
				<g>
					<path class="st68" d="M54.94,32.34c-0.03,0.1-0.13,0.15-0.23,0.12c-0.1-0.03-0.15-0.13-0.12-0.23c0-0.01,2.68-4.51,4.1-4.29
						l-0.4,0.31C56.88,29.53,54.95,32.33,54.94,32.34z"/>
					<path class="st68" d="M37.93,32.28c0.03,0.1,0.13,0.15,0.23,0.12c0.1-0.03,0.15-0.13,0.12-0.23c0-0.01-2.71-4.09-4.13-3.87
						l0.22,0.09l0.17,0.12C35.96,29.79,37.93,32.27,37.93,32.28z"/>
					<path class="st68" d="M38.36,39.2c0.1,0.01,0.19-0.06,0.2-0.16c0.01-0.1-0.06-0.19-0.16-0.2l-0.06-0.01
						c-2.07-0.26-3.87-3.33-4.02-5.16c-0.13-0.07-0.26-0.15-0.38-0.24c0.1,2.06,2.03,5.47,4.35,5.76L38.36,39.2z"/>
					<path class="st68" d="M54.41,39.2c-0.1,0.01-0.19-0.06-0.2-0.16c-0.01-0.1,0.06-0.19,0.16-0.2l0.06-0.01
						c2.07-0.26,4.25-3.33,4.39-5.16c0.13-0.07,0.26-0.15,0.38-0.24c-0.1,2.06-2.41,5.47-4.73,5.76L54.41,39.2z"/>
					<g>
						<path class="st21" d="M46.72,30.71l8.09,1.21c0,0,0.34,0.1,0.33,0.41c-0.01,0.31-0.3,6.26-0.3,6.26s-0.01,0.54-0.35,1
							c-0.33,0.46-2.98,4.82-8.08,4.82c-5.1,0-7.74-4.36-8.08-4.82c-0.33-0.46-0.35-1-0.35-1s-0.29-5.95-0.3-6.26
							C37.67,32.01,38,31.91,38,31.91L46.72,30.71z"/>
						<path class="st68" d="M46.75,31.38l-8.42,1.16c0.07,2,0.21,4.01,0.3,6.01c0.01,0.21,0.1,0.48,0.23,0.65
							c0.22,0.31,0.43,0.62,0.67,0.93c0.44,0.56,0.94,1.08,1.48,1.55c1.54,1.32,3.36,2.08,5.41,2.08c2.05,0,3.86-0.76,5.41-2.08
							c0.54-0.46,1.04-0.99,1.48-1.55c0.24-0.31,0.44-0.61,0.67-0.93c0.12-0.17,0.22-0.44,0.23-0.65c0.09-2,0.22-4.01,0.3-6.01
							L46.75,31.38z"/>
						<path class="st15" d="M38.45,35.14c0.04,0.78,0.09,1.56,0.13,2.34l7.45-2.87L38.45,35.14L38.45,35.14z M38.61,38.29l0.01,0.26
							c0.01,0.21,0.1,0.48,0.23,0.65c0.22,0.31,0.43,0.62,0.67,0.93c0.44,0.56,0.94,1.08,1.48,1.55c1.54,1.32,3.36,2.08,5.41,2.08
							c2.05,0,3.86-0.76,5.41-2.08c0.54-0.46,1.04-0.99,1.48-1.55c0.24-0.31,0.44-0.61,0.67-0.93c0.03-0.05,0.07-0.1,0.09-0.16
							c0,0-1.31,1.42-5.86,1.42C43.65,40.46,38.61,38.29,38.61,38.29L38.61,38.29z M54.21,37.99c0.03-0.57,0.06-1.15,0.09-1.72
							l-5.55-0.39L54.21,37.99z"/>
					</g>
				</g>
				<path class="st15" d="M67.33,51.58c0,0,2.65,0.88,3.91,3.41c1.26,2.52,6.09,25.5,6.51,27.68c0.22,1.16,6.97,0.87,7.71,4.15
					c1.09,4.87-4.86,8.37-9.75,9.82c-0.38,0.11-0.78,0.1-1.16-0.02l-0.42-0.13c-0.71-0.23-1.36-0.62-1.88-1.16
					c-4.09-4.24-4.31-10.26-3.96-10.65l-1.93-9.8C66.35,74.88,61.3,57.11,67.33,51.58z"/>
				<path class="st64" d="M35.08,30.4c0,0,1.31-0.94,1.31-3.24c0,0,2.1-1.95,1.93-4.02c-0.17-2.06-2.49-4.8-2.49-4.8
					s-2.09,1.31-2.85,2.74c-0.76,1.43,0.21,7.32,0.21,7.32S34.62,27.35,35.08,30.4z"/>
				<path class="st64" d="M57.73,30.4c0,0-1.31-0.94-1.31-3.24c0,0-2.1-1.95-1.93-4.02c0.17-2.06,2.49-4.8,2.49-4.8
					s2.09,1.31,2.85,2.74c0.76,1.43-0.21,7.32-0.21,7.32S58.19,27.35,57.73,30.4z"/>
				<path class="st64" d="M52.4,17.63l-0.04-0.02c-0.06,0.03-0.13,0.02-0.19-0.01c-1.67-0.98-3.21,0.43-5.01,2.07
					c-1.82,1.66-3.91,3.56-6.72,3.67c-0.25,0.07-0.51,0.12-0.77,0.15c-4.82,0.56-7.02-5.99-2.56-10.34
					C41.9,8.5,52.36,7.81,53.55,15.3C53.55,15.3,53.77,16.9,52.4,17.63L52.4,17.63z M49.37,17.37c-2.6,0.74-4.72,3.75-7.31,5.27
					c1.89-0.6,3.44-2,4.83-3.27C47.75,18.58,48.56,17.84,49.37,17.37z"/>
				<path class="st64" d="M52.18,17.6c0,0-0.26,5.52,2.9,6.32c3.15,0.8,4.25-3.28,2.69-7.23c-1.56-3.95-5.47-5.72-6.26-5.42
					C50.7,11.56,52.18,17.6,52.18,17.6z"/>
				<path class="st15" d="M51.84,52.93c-0.04,0.14-1.73,8.1-3.26,15.57l11.38-12.02l-1.85-7.57c-0.82-0.2-1.34-0.32-1.34-0.32
					L51.84,52.93z"/>
				<path class="st21" d="M40.96,52.93c0,0,0.57-0.7,0.76-1.21c0.19-0.51,0.13-0.86-0.44-1.43c-0.57-0.57-2.73-2.57-3.14-2.95
					c-0.41-0.38-0.84-0.21-1.06,0.02c-0.22,0.22-1.06,1.23-1.06,1.23S37.46,51.29,40.96,52.93z"/>
				<path class="st68" d="M40.96,52.93c0.07,0.25,5.66,26.57,5.66,28.36c0,0.25-0.2,12.05-2.85,20.39l-20.07,0.58
					c1.24-6.79,3.38-18.08,3.39-18.45c0.03-0.81-1.11-11.1-1.11-11.1s2.89-15.2-1.92-19.59c0,0,0.46-0.8,1.41-1.53
					c0.95-0.73,10.55-2.99,10.55-2.99L40.96,52.93z"/>
				<path class="st70" d="M42.89,62.04c1.64,7.87,3.73,18.16,2.95,14.23l-7.46-11.43l2.9-2.9C41.27,61.94,40.61,60.81,42.89,62.04z"
					/>
				<path class="st15" d="M25.47,51.58c0,0-2.65,0.88-3.91,3.41c-1.26,2.52-5.6,24.12-6.03,26.3c-0.41,2.11-5.65,7-2.67,13.43h10.76
					c0.47,5.69-1.9-9.18-2.27-9.59l5.15-10.7C26.51,74.43,31.51,57.11,25.47,51.58z"/>
				<path class="st15" d="M40.96,52.93c0.04,0.14,1.73,8.1,3.26,15.57L32.84,56.48l1.85-7.57c0.82-0.2,1.34-0.32,1.34-0.32
					L40.96,52.93z"/>
				<path class="st21" d="M45,83.85c0.32,0,0.59-0.26,0.59-0.59c0-0.32-0.26-0.59-0.59-0.59c-0.32,0-0.59,0.26-0.59,0.59
					C44.41,83.58,44.67,83.85,45,83.85z"/>
				<path class="st21" d="M45,89.52c0.32,0,0.59-0.26,0.59-0.59c0-0.32-0.26-0.59-0.59-0.59c-0.32,0-0.59,0.26-0.59,0.59
					C44.41,89.26,44.67,89.52,45,89.52z"/>
			</g>
			<g>
				<path class="st71" d="M87,92.63l-76.86,5.7c-1.83,0.14-3.42-1.24-3.55-3.06L5.35,78.62c-0.14-1.83,1.24-3.42,3.06-3.55
					l76.86-5.7c1.83-0.14,3.42,1.24,3.55,3.06l1.24,16.66C90.2,90.91,88.83,92.5,87,92.63z"/>
				<g>
					<path class="st0" d="M23.95,84.37l-0.88,0.06l-0.1,1.22l0.75-0.06l0.07,0.92l-0.89,0.07l-0.16,2.05l-1,0.07l0.16-2.05l-1.3,0.1
						l-0.15,2.05l-1.02,0.08l0.17-2.05l-0.75,0.06l-0.07-0.92l0.89-0.07l0.1-1.23L19,84.74l-0.07-0.92l0.9-0.07l0.16-1.93L21,81.74
						l-0.15,1.93l1.29-0.1l0.16-1.93l1-0.08l-0.16,1.93l0.74-0.06L23.95,84.37z M22.06,84.51l-1.29,0.1l-0.1,1.22l1.3-0.1
						L22.06,84.51z"/>
					<path class="st0" d="M30.14,84.55l0.03,0.35c0.03,0.38,0.04,0.7,0.03,0.99s-0.05,0.56-0.13,0.84c-0.08,0.28-0.21,0.53-0.4,0.75
						c-0.39,0.47-0.96,0.73-1.7,0.78l-2.37,0.18l-0.52-6.95l2.37-0.18c0.74-0.06,1.34,0.12,1.8,0.52c0.22,0.19,0.38,0.41,0.5,0.66
						c0.12,0.25,0.2,0.51,0.25,0.77c0.05,0.27,0.08,0.58,0.11,0.94L30.14,84.55z M29.12,84.63c-0.03-0.4-0.06-0.71-0.09-0.92
						s-0.08-0.42-0.15-0.61c-0.07-0.19-0.16-0.34-0.28-0.45c-0.3-0.29-0.7-0.42-1.18-0.39l-1.24,0.09l0.38,5.05l1.24-0.09
						c0.49-0.04,0.86-0.22,1.11-0.55c0.15-0.19,0.23-0.45,0.25-0.76C29.17,85.69,29.16,85.23,29.12,84.63z"/>
					<path class="st0" d="M32.36,81.97l-1.02,0.08l-0.08-1.05l1.02-0.08L32.36,81.97z M32.77,87.9l-0.97,0.07l-0.37-4.95l0.97-0.07
						L32.77,87.9z"/>
					<path class="st0" d="M39.34,87.41l-1.19,0.09l-1.64-2.82l-1.28,0.09l0.22,2.92l-1.03,0.08l-0.52-6.95l2.62-0.2
						c0.41-0.03,0.79,0.03,1.12,0.18c0.33,0.15,0.6,0.37,0.79,0.67c0.19,0.29,0.31,0.64,0.33,1.03c0.04,0.48-0.06,0.88-0.28,1.22
						c-0.22,0.34-0.53,0.58-0.92,0.72L39.34,87.41z M37.74,82.59c-0.02-0.34-0.15-0.6-0.37-0.78c-0.22-0.18-0.51-0.26-0.86-0.23
						L35,81.7l0.16,2.17l1.51-0.11c0.35-0.03,0.62-0.14,0.81-0.35C37.68,83.2,37.77,82.93,37.74,82.59z"/>
					<path class="st0" d="M44.36,87.03l-0.94,0.07l-0.04-0.5c-0.15,0.19-0.33,0.34-0.55,0.45s-0.45,0.18-0.69,0.2
						c-0.48,0.04-0.89-0.08-1.22-0.36c-0.19-0.17-0.33-0.36-0.42-0.58c-0.09-0.22-0.15-0.48-0.17-0.78l-0.23-3.16l0.97-0.07
						l0.22,3.01c0.03,0.37,0.14,0.64,0.33,0.81c0.19,0.17,0.43,0.25,0.71,0.22c0.29-0.02,0.52-0.13,0.69-0.33
						c0.17-0.2,0.25-0.48,0.22-0.85l-0.22-3.01L44,82.09L44.36,87.03z"/>
					<path class="st0" d="M52.72,86.41l-0.97,0.07l-0.22-3.01c-0.03-0.37-0.14-0.64-0.33-0.81c-0.19-0.17-0.43-0.24-0.72-0.22
						c-0.28,0.02-0.5,0.13-0.68,0.33s-0.26,0.46-0.23,0.8l0.23,3.06l-0.97,0.07l-0.22-3.01c-0.02-0.25-0.08-0.45-0.17-0.61
						c-0.1-0.16-0.22-0.27-0.37-0.34s-0.32-0.09-0.5-0.08c-0.29,0.02-0.52,0.13-0.7,0.33c-0.17,0.2-0.25,0.48-0.22,0.84l0.22,3.01
						l-0.97,0.07l-0.37-4.95l0.95-0.07l0.04,0.5c0.14-0.19,0.32-0.34,0.54-0.46c0.21-0.11,0.45-0.18,0.7-0.2
						c0.6-0.04,1.08,0.17,1.42,0.63c0.35-0.51,0.83-0.79,1.46-0.84c0.51-0.04,0.92,0.08,1.25,0.36c0.36,0.31,0.57,0.76,0.61,1.35
						L52.72,86.41z"/>
					<path class="st0" d="M57.75,86.04l-0.95,0.07l-0.03-0.45c-0.16,0.19-0.34,0.34-0.52,0.43c-0.19,0.09-0.42,0.15-0.72,0.17
						c-0.29,0.02-0.54,0-0.76-0.06c-0.22-0.06-0.41-0.16-0.56-0.3c-0.27-0.25-0.43-0.6-0.46-1.04c-0.02-0.28,0.02-0.54,0.13-0.76
						c0.11-0.22,0.29-0.4,0.53-0.54c0.24-0.14,0.54-0.22,0.89-0.25l1.27-0.09l-0.03-0.35c-0.02-0.32-0.12-0.54-0.3-0.68
						c-0.18-0.14-0.45-0.19-0.82-0.16c-0.27,0.02-0.48,0.07-0.62,0.15c-0.14,0.08-0.28,0.22-0.4,0.4l-0.68-0.57
						c0.2-0.28,0.43-0.49,0.68-0.61c0.25-0.13,0.58-0.2,0.99-0.23c1.32-0.1,2.02,0.42,2.11,1.55L57.75,86.04z M56.65,84.33
						l-0.03-0.4l-1.13,0.08c-0.28,0.02-0.49,0.1-0.63,0.23c-0.14,0.14-0.2,0.32-0.18,0.55c0.04,0.47,0.34,0.68,0.93,0.63
						c0.21-0.02,0.38-0.05,0.51-0.09c0.14-0.05,0.26-0.13,0.37-0.25C56.63,84.92,56.68,84.67,56.65,84.33z"/>
					<path class="st0" d="M63.12,85.64l-0.97,0.07l-0.23-3.03c-0.03-0.36-0.14-0.63-0.33-0.79c-0.19-0.17-0.43-0.24-0.72-0.22
						S60.36,81.8,60.19,82c-0.17,0.2-0.24,0.47-0.21,0.83l0.23,3.03l-0.97,0.07l-0.52-6.95l0.97-0.07l0.19,2.5
						c0.3-0.4,0.7-0.62,1.2-0.65c0.35-0.03,0.65,0.03,0.92,0.16c0.26,0.13,0.47,0.33,0.62,0.59c0.15,0.26,0.24,0.58,0.27,0.94
						L63.12,85.64z"/>
					<path class="st0" d="M69.69,85.16l-1.09,0.08l-0.57-1.36l-2.66,0.2l-0.36,1.43l-1.09,0.08l1.96-7.13l0.82-0.06L69.69,85.16z
						 M67.68,83l-1.25-3.01l-0.82,3.16L67.68,83z"/>
					<path class="st0" d="M71.54,85.67c0.03,0.4-0.06,0.74-0.26,1.01c-0.2,0.27-0.52,0.42-0.96,0.46l-0.6,0.04l-0.06-0.85l0.43-0.03
						c0.19-0.01,0.32-0.07,0.39-0.17c0.07-0.1,0.1-0.25,0.09-0.45l-0.41-5.54l0.97-0.07L71.54,85.67z M71.08,79.09l-1.02,0.08
						l-0.08-1.05l1.02-0.08L71.08,79.09z"/>
					<path class="st0" d="M76.57,84.65l-0.95,0.07l-0.03-0.45c-0.16,0.19-0.34,0.34-0.52,0.43c-0.19,0.09-0.42,0.15-0.72,0.17
						c-0.29,0.02-0.54,0-0.76-0.06c-0.22-0.06-0.41-0.16-0.56-0.3c-0.27-0.25-0.43-0.6-0.46-1.04c-0.02-0.28,0.02-0.54,0.13-0.76
						c0.11-0.22,0.29-0.4,0.53-0.54c0.24-0.14,0.54-0.22,0.89-0.25l1.27-0.09l-0.03-0.35c-0.02-0.32-0.12-0.54-0.3-0.68
						s-0.45-0.19-0.82-0.16c-0.27,0.02-0.48,0.07-0.62,0.15s-0.28,0.22-0.4,0.4l-0.68-0.57c0.2-0.28,0.43-0.49,0.68-0.61
						c0.25-0.13,0.58-0.2,0.99-0.23c1.32-0.1,2.02,0.42,2.11,1.55L76.57,84.65z M75.47,82.93l-0.03-0.4l-1.13,0.08
						c-0.28,0.02-0.49,0.1-0.63,0.23c-0.14,0.14-0.2,0.32-0.18,0.55c0.04,0.47,0.35,0.68,0.93,0.64c0.21-0.02,0.38-0.05,0.51-0.09
						c0.14-0.05,0.26-0.13,0.37-0.25C75.44,83.53,75.5,83.28,75.47,82.93z"/>
				</g>
				<path class="st72" d="M3.52,83.78c-0.93,1.25-1.56,2.76-1.57,4.35c0,1.04,0.07,2.9,0.82,3.7c0.58,0.62,3.2,1.41,3.67,1.33
					c-0.05-0.78-0.19-2.55-0.19-2.55s2.65,0.83,3.94,0.89c0,0,2.12-2.6,2.78-5.69c0.34-1.6-0.3-4.31-7.33-4.19
					c0,0-0.17-1.42-0.18-2.13c-0.36,0.75-0.53,1.58-0.8,2.37C4.58,82.07,3.86,83.32,3.52,83.78z"/>
				<path class="st72" d="M91.35,76.69c1.1,1.1,1.96,2.49,2.2,4.07c0.16,1.03,0.36,2.88-0.26,3.78c-0.48,0.7-2.96,1.87-3.43,1.86
					c-0.07-0.78-0.19-2.55-0.19-2.55s-2.49,1.22-3.76,1.47c0,0-2.49-2.25-3.6-5.21c-0.57-1.53-0.35-4.31,6.62-5.24
					c0,0-0.05-1.43-0.14-2.14c0.47,0.69,0.76,1.48,1.15,2.22C90.04,75.15,90.94,76.28,91.35,76.69z"/>
			</g>
			<g id="XMLID_100_">
				<g id="XMLID_104_">
					<path id="XMLID_112_" class="st0" d="M59.19,67.37h-0.25v-0.14c-0.03,0.04-0.07,0.07-0.1,0.09c-0.03,0.02-0.07,0.04-0.11,0.05
						c-0.04,0.01-0.08,0.01-0.13,0.01c-0.06,0-0.12-0.01-0.18-0.03c-0.05-0.02-0.1-0.05-0.14-0.08c-0.04-0.04-0.07-0.09-0.09-0.15
						c-0.02-0.06-0.03-0.12-0.04-0.18c-0.01-0.06-0.01-0.13-0.01-0.21c0-0.08,0-0.15,0.01-0.21c0.01-0.06,0.02-0.12,0.04-0.18
						c0.02-0.06,0.05-0.11,0.09-0.15c0.04-0.04,0.08-0.06,0.14-0.08c0.05-0.02,0.11-0.03,0.18-0.03c0.07,0,0.13,0.01,0.19,0.03
						c0.05,0.02,0.1,0.06,0.15,0.11v-0.64h0.26V67.37z M58.93,66.73c0-0.09-0.01-0.16-0.02-0.22c-0.01-0.06-0.04-0.11-0.08-0.15
						c-0.04-0.04-0.1-0.05-0.17-0.05c-0.07,0-0.13,0.02-0.17,0.06c-0.04,0.04-0.07,0.09-0.08,0.15c-0.01,0.06-0.02,0.13-0.02,0.22
						c0,0.09,0.01,0.16,0.02,0.22c0.01,0.06,0.04,0.11,0.08,0.15c0.04,0.04,0.1,0.06,0.17,0.06c0.11,0,0.18-0.04,0.21-0.11
						C58.91,66.97,58.93,66.87,58.93,66.73"/>
					<path id="XMLID_109_" class="st0" d="M61.19,66.73c0,0.08,0,0.15-0.01,0.21c-0.01,0.06-0.02,0.12-0.04,0.18
						c-0.02,0.06-0.05,0.11-0.09,0.15c-0.04,0.04-0.08,0.06-0.13,0.08c-0.05,0.02-0.11,0.03-0.18,0.03c-0.07,0-0.13-0.01-0.19-0.03
						c-0.05-0.02-0.1-0.06-0.15-0.11v0.64h-0.26V66.1h0.25v0.14c0.05-0.06,0.1-0.1,0.15-0.12c0.05-0.02,0.12-0.03,0.19-0.03
						c0.06,0,0.12,0.01,0.18,0.03c0.06,0.02,0.1,0.05,0.13,0.08c0.04,0.04,0.07,0.09,0.09,0.15c0.02,0.06,0.04,0.12,0.04,0.18
						C61.18,66.58,61.19,66.65,61.19,66.73 M60.93,66.73c0-0.09-0.01-0.16-0.02-0.22c-0.01-0.06-0.04-0.11-0.08-0.15
						c-0.04-0.04-0.1-0.05-0.17-0.05c-0.07,0-0.13,0.02-0.17,0.06c-0.04,0.04-0.07,0.09-0.08,0.15c-0.01,0.06-0.02,0.13-0.02,0.22
						c0,0.09,0.01,0.16,0.02,0.22c0.01,0.06,0.04,0.11,0.08,0.15c0.04,0.04,0.1,0.06,0.17,0.06c0.11,0,0.18-0.04,0.21-0.11
						C60.91,66.97,60.93,66.87,60.93,66.73"/>
					<g id="XMLID_105_">
						<path id="XMLID_107_" class="st0" d="M59.79,67.54c0,0.1-0.03,0.19-0.09,0.25c-0.06,0.07-0.15,0.1-0.26,0.1h-0.19v-0.22h0.15
							c0.05,0,0.09-0.01,0.11-0.04c0.02-0.02,0.03-0.06,0.03-0.11V66.1h0.26V67.54z"/>
						<path id="XMLID_106_" class="st0" d="M59.83,65.75c0,0.04-0.02,0.08-0.05,0.12c-0.03,0.03-0.07,0.05-0.12,0.05
							c-0.04,0-0.08-0.02-0.12-0.05c-0.03-0.03-0.05-0.07-0.05-0.12c0-0.04,0.02-0.08,0.05-0.12c0.03-0.03,0.07-0.05,0.12-0.05
							c0.05,0,0.09,0.02,0.12,0.05C59.81,65.66,59.83,65.7,59.83,65.75"/>
					</g>
				</g>
				<g id="XMLID_101_">
					<path id="XMLID_103_" class="st0" d="M60.43,62.18h-0.76h-0.78c-0.42,0-0.76,0.34-0.76,0.76v0.67c0,0,0.02-0.07,0.04-0.16
						c0.1-0.3,0.39-0.51,0.72-0.51h1.54v1.45c0,0,0.56,0.02,0.75-0.75c0-0.01,0.01-0.02,0.01-0.03v-0.66
						C61.19,62.52,60.85,62.18,60.43,62.18z"/>
					<path id="XMLID_102_" class="st0" d="M61.15,63.96c-0.1,0.3-0.39,0.51-0.72,0.51h-1.54l0,0v-1.46
						c-0.44,0.03-0.69,0.42-0.75,0.78l-0.01,0.07l0,0v0.61c0,0.42,0.34,0.76,0.76,0.76h1.54c0.42,0,0.76-0.34,0.76-0.76v-0.65
						C61.19,63.83,61.17,63.88,61.15,63.96z"/>
				</g>
			</g>
		</g>
		<path style="clip-path:url(#SVGID_2_);fill:#D8776E;" d="M89.67,83.85l0.19,2.55c0,0,1.25-0.46,1.3-1.43
			C91.22,84.01,89.67,83.85,89.67,83.85z"/>
		<path style="clip-path:url(#SVGID_2_);fill:#D8776E;" d="M6.25,90.61c0,0-1.54-0.05-1.16,1.05c0.38,1.11,1.35,1.49,1.35,1.49
			l-0.18-2.41"/>
	</g>
</g>
</svg>
